<?xml version="1.0" encoding="utf-8"?>
<!-- Generator: Adobe Illustrator 25.3.1, SVG Export Plug-In . SVG Version: 6.00 Build 0)  -->
<svg version="1.1" id="Layer_1" xmlns="http://www.w3.org/2000/svg" xmlns:xlink="http://www.w3.org/1999/xlink" x="0px" y="0px"
	 viewBox="0 0 491 449.4" style="enable-background:new 0 0 491 449.4;" xml:space="preserve">
<style type="text/css">
	.st0{fill:#F59115;}
	.st1{opacity:0.8;fill:#FFFFFF;enable-background:new    ;}
	.st2{fill:#263238;}
	.st3{opacity:0.65;fill:#FFFFFF;enable-background:new    ;}
	.st4{fill:#CCCCCC;}
	.st5{opacity:0.65;fill:#E5E5E5;enable-background:new    ;}
	.st6{fill:#FFFFFF;}
	.st7{clip-path:url(#SVGID_5_);}
	.st8{clip-path:url(#SVGID_6_);}
	.st9{opacity:0.24;}
	.st10{clip-path:url(#SVGID_11_);}
	.st11{clip-path:url(#SVGID_12_);}
</style>
<g>
	<g id="freepik--background-simple--inject-11">
		<path class="st0" d="M434.4,69.6c0,0-29.5-57.4-94.7-65.9s-110.6,33-158.6,54.2C156,69,127.3,64.7,100.6,70.1
			C15.3,87.4-16.8,195.3,18.7,256.6c30.7,53.1,84.9,80.8,167.3,87.1s140.2,13.8,214-38.3S468.9,145.1,434.4,69.6z"/>
		<path class="st1" d="M434.4,69.6c0,0-29.5-57.4-94.7-65.9s-110.6,33-158.6,54.2C156,69,127.3,64.7,100.6,70.1
			C15.3,87.4-16.8,195.3,18.7,256.6c30.7,53.1,84.9,80.8,167.3,87.1s140.2,13.8,214-38.3S468.9,145.1,434.4,69.6z"/>
	</g>
	<g id="freepik--Books--inject-11">
		<path class="st2" d="M416.5,182L416.5,182c-0.5,0-49.4-0.9-50.7-0.9c-1.3,0-5.5,0-7.4-1.9s-6-7.7-6.2-7.9
			c-0.1-0.1-0.1-0.3-0.1-0.5l12.7-52.9c0.1-0.3,0.4-0.5,0.7-0.4c0.3,0.1,0.5,0.4,0.5,0.7l0,0l-12.6,52.6c0.8,1.1,4.4,6,5.9,7.6
			c1.5,1.5,5.3,1.6,6.6,1.6c1.2,0,44.6,0.8,50.2,0.9l9.7-64.2c0-0.3,0.4-0.6,0.7-0.5c0.3,0,0.6,0.4,0.5,0.7l0,0l-9.7,64.7
			C417.1,181.8,416.8,182,416.5,182z"/>
		<path class="st2" d="M375.9,108.6L375.9,108.6l-4-0.1c-0.3,0-0.6-0.3-0.6-0.6s0.3-0.6,0.6-0.6l4,0.1c0.3,0,0.6,0.3,0.6,0.6
			S376.3,108.6,375.9,108.6L375.9,108.6z"/>
		<path class="st2" d="M355.3,172.4c-0.3,0-0.6-0.3-0.6-0.6s0.3-0.6,0.6-0.6l52.8-0.2l11.1-61.6l-38.4-0.7c-0.3,0-0.6-0.3-0.6-0.6
			s0.3-0.6,0.6-0.6l39.1,0.7c0.2,0,0.3,0.1,0.5,0.2c0.1,0.1,0.2,0.3,0.1,0.5l-11.3,62.8c0,0.3-0.3,0.5-0.6,0.5L355.3,172.4
			L355.3,172.4z"/>
		<path class="st2" d="M413.9,178.9L413.9,178.9l-51.1-1.3c-0.2,0-0.3-0.1-0.4-0.2l-4.4-4.8c-0.2-0.2-0.2-0.6,0-0.9
			c0.2-0.2,0.6-0.2,0.8,0l0,0l4.2,4.6l50.4,1.3l9.1-55.3l-3.8-5.3c-0.2-0.3-0.1-0.6,0.1-0.8l0,0c0.3-0.2,0.6-0.1,0.8,0.1l0,0l4,5.5
			c0.1,0.1,0.1,0.3,0.1,0.5l-9.3,56.1C414.5,178.8,414.2,179,413.9,178.9z"/>
		<path class="st2" d="M367.3,175h7.4c0,0-1.2,5.9-1.8,11.4c-0.6,5.5-0.9,12.7-0.9,12.7l-4.3-8l-5.3,6.8L367.3,175z"/>
		<path class="st2" d="M55.3,187.2c-0.2,0-0.5-0.1-0.6-0.4c-0.1-0.3,0-0.7,0.3-0.8l31.3-12.6c0.7-1.8,1.2-3.7,1.7-5.6
			c0.1-0.8-0.4-2.1-1.5-3.7c-0.4-0.6-15.2-22.2-17.6-25.7l-36,18.2c-0.3,0.2-0.6,0-0.8-0.2l0,0c-0.2-0.3,0-0.7,0.3-0.8l0,0
			l36.5-18.5c0.3-0.1,0.6-0.1,0.8,0.2c0.2,0.3,17.5,25.5,17.9,26.1c0.9,1.2,2,3.1,1.8,4.6s-1.8,5.9-1.8,6c-0.1,0.2-0.2,0.3-0.4,0.4
			l-31.7,12.7C55.4,187.2,55.3,187.2,55.3,187.2z"/>
		<path class="st2" d="M47.8,187.5c-0.2,0-0.4-0.1-0.5-0.3l-1.4-2.1c-0.2-0.3-0.1-0.7,0.2-0.8c0.3-0.2,0.7-0.1,0.8,0.2l1.4,2.1
			c0.2,0.3,0.1,0.6-0.2,0.8C48,187.5,47.9,187.5,47.8,187.5z"/>
		<path class="st2" d="M44.6,182.9c-0.2,0-0.4-0.1-0.5-0.3l-13.8-20.2c-0.1-0.1-0.1-0.3-0.1-0.5s0.2-0.3,0.3-0.4l36.1-16.9
			c0.3-0.1,0.6,0,0.7,0.2l19.4,27.1c0.2,0.3,0.1,0.6-0.1,0.8c-0.3,0.2-0.6,0.1-0.8-0.1l0,0l-19.1-26.7l-35,16.4l13.4,19.6
			c0.2,0.3,0.1,0.6-0.2,0.8C44.8,182.8,44.7,182.9,44.6,182.9z"/>
		<path class="st2" d="M85.3,171.1L85.3,171.1c-0.4-0.1-0.6-0.4-0.6-0.7l0.8-3.7l-17.4-25.9l-31.2,15.3l-1.3,3.8
			c-0.1,0.3-0.5,0.5-0.8,0.4s-0.5-0.4-0.4-0.8l1.4-4.1c0.1-0.2,0.2-0.3,0.3-0.4L68,139.4c0.3-0.1,0.6,0,0.8,0.2l17.9,26.6
			c0.1,0.1,0.1,0.3,0.1,0.5l-0.9,4C85.9,171,85.7,171.2,85.3,171.1z"/>
		<path class="st2" d="M83.6,165l-2.7-3.8c0,0,3.4-1.5,6.5-3.2s6.8-4.1,6.8-4.1l-2.5,5.1l5.4,0.2L83.6,165z"/>
		<path class="st2" d="M74.1,280.2L74.1,280.2c-0.3,0-0.4-0.2-0.5-0.3l-22.1-42.3c-0.1-0.2-0.1-0.3,0-0.5s0.2-0.3,0.3-0.4l2.5-1.2
			c0.3-0.1,0.7,0,0.8,0.3s0,0.6-0.2,0.7l-1.9,1l21.4,41l36.4-38.8c0.1-0.1,0.2-0.1,0.3-0.2l44.4-13.7l-22-35l-1.6,0.1
			c-0.3,0-0.6-0.2-0.6-0.5l0,0c0-0.3,0.2-0.6,0.6-0.6l2-0.2c0.2,0,0.4,0.1,0.6,0.3l22.6,36c0.1,0.2,0.1,0.4,0,0.5
			c-0.1,0.2-0.2,0.3-0.4,0.4l-45,13.9l-37.2,39.4C74.4,280.2,74.3,280.2,74.1,280.2z"/>
		<path class="st2" d="M74.6,274.5L74.6,274.5c-0.3,0-0.4-0.1-0.5-0.3L53,233.8c-0.1-0.3-0.1-0.6,0.2-0.7c0.1-0.1,10-8.2,14.7-19.5
			c4.3-10.4,11.8-15.5,19.9-13.8c0.2,0,0.3,0.1,0.4,0.3l19.7,35.5c0.2,0.3,0.1,0.7-0.2,0.8c-0.1,0.1-0.3,0.1-0.4,0.1
			c-0.3-0.1-8.1-1.7-9.8,5.8c-1.9,8-10.1,18.3-14.1,23.2l-0.4,0.6c-2.4,2.9-5,5.7-7.8,8.2C74.9,274.4,74.7,274.5,74.6,274.5z
			 M54.2,233.7l20.5,39.2c2.5-2.4,4.9-4.9,7.1-7.6l0.4-0.6c3.9-4.8,12.1-15,13.9-22.7c1.6-6.7,7.5-7.1,10-6.9l-19-34.3
			c-7.4-1.4-14.2,3.5-18.3,13.2C64.6,224.3,56.1,232,54.2,233.7z"/>
		<path class="st2" d="M107.2,236.5c-0.2,0-0.4-0.1-0.5-0.3L87,200.6c0-0.1,0-0.3,0-0.4c1.4-6.6,8.7-9.7,23.6-9.7
			c13,0,18.3-4.1,18.4-4.2c0.1-0.1,0.3-0.2,0.5-0.1c0.2,0,0.3,0.1,0.4,0.3l22.1,36c0.2,0.3,0.1,0.6-0.2,0.8c-0.1,0-1.6,1-10.7,3.9
			c-6.3,2-13.3,1.7-18.9,1.5c-2.2-0.1-4.5-0.1-6.7,0c-5.3,0.4-7.6,7.2-7.6,7.2c-0.1,0.2-0.3,0.4-0.5,0.4L107.2,236.5z M88.2,200.2
			l19,34.3c1-2.2,3.6-6.5,8.2-6.9c2.3-0.1,4.6-0.1,6.8,0c5.5,0.2,12.4,0.5,18.5-1.4c3.4-1,6.7-2.2,9.9-3.5l-21.4-35
			c-1.7,1.1-7.3,4.1-18.6,4.1C96.5,191.8,89.6,194.4,88.2,200.2z"/>
		<path class="st2" d="M90,260.1c-0.1,0-0.3,0-0.4-0.1c-0.3-0.2-0.3-0.6-0.1-0.9c2.3-2.9,4.2-5.5,5.8-7.8c1.8-2.8,3.9-5.3,6.3-7.7
			c2.1-1.8,4.4-3.3,6.9-4.4c0.3-0.1,0.6,0,0.8,0.3l0,0c0.1,0.3,0,0.7-0.3,0.8c-2.4,1.1-4.6,2.5-6.6,4.2c-2.3,2.2-4.3,4.7-6,7.5
			c-1.6,2.3-3.5,4.8-5.9,7.8C90.3,260,90.1,260.1,90,260.1z"/>
		<path class="st2" d="M112.5,237.5c-0.1,0-0.3,0-0.4-0.1c-0.3-0.2-0.3-0.6-0.1-0.8c2.3-2.8,5.5-4.6,9.1-5l2.2-0.2
			c9.3-0.5,18.4-2.5,27-6c0.3-0.1,0.7,0,0.8,0.4c0.1,0.3,0,0.7-0.4,0.8c-8.7,3.5-17.9,5.6-27.3,6.1l-2.1,0.2
			c-3.2,0.5-6.1,2.1-8.2,4.6C112.9,237.4,112.7,237.5,112.5,237.5z"/>
		<path class="st2" d="M60.7,239.4c-0.3,0-0.6-0.3-0.6-0.6c0-0.2,0.1-0.3,0.2-0.4c4.1-4.7,7.9-9.7,11.5-14.8
			c6.8-9.7,11.8-13.7,17.3-13.7c0.3,0,0.6,0.3,0.6,0.6s-0.3,0.6-0.6,0.6c-5,0-9.8,3.8-16.3,13.2c-3.6,5.2-7.4,10.2-11.6,15
			C61,239.3,60.8,239.4,60.7,239.4z"/>
		<path class="st2" d="M64.5,245.6c-0.2,0-0.3-0.1-0.4-0.2c-0.2-0.2-0.2-0.6,0-0.8l0,0c4.1-4.7,7.9-9.7,11.5-14.8
			c6.8-9.7,11.8-13.7,17.3-13.7c0.3,0,0.6,0.3,0.6,0.6s-0.3,0.6-0.6,0.6c-5,0-9.8,3.8-16.3,13.2c-3.6,5.2-7.4,10.2-11.6,15
			C64.9,245.6,64.7,245.7,64.5,245.6z"/>
		<path class="st2" d="M68.3,251.9c-0.3,0-0.6-0.3-0.6-0.6c0-0.1,0.1-0.3,0.2-0.4c4.1-4.7,7.9-9.7,11.5-14.8
			c6.8-9.7,11.8-13.7,17.3-13.7c0.3,0,0.6,0.3,0.6,0.6s-0.3,0.6-0.6,0.6c-5,0-9.8,3.8-16.3,13.2c-3.6,5.2-7.4,10.2-11.6,15
			C68.7,251.8,68.5,251.9,68.3,251.9z"/>
		<path class="st2" d="M72.2,258.1c-0.1,0-0.3-0.1-0.4-0.2c-0.2-0.2-0.2-0.6,0-0.8l0,0c4.1-4.7,7.9-9.7,11.5-14.8
			c6.8-9.7,11.8-13.7,17.3-13.7c0.3,0,0.6,0.3,0.6,0.6s-0.3,0.6-0.6,0.6c-5,0-9.8,3.8-16.3,13.2c-3.6,5.2-7.4,10.2-11.6,15
			C72.5,258.1,72.4,258.2,72.2,258.1z"/>
		<path class="st2" d="M95.7,208.2h-0.2c-0.3-0.1-0.5-0.5-0.4-0.8c0-0.1,2.2-5.7,9.7-5.7c14.1,0,23.2-2.2,24.4-5.8
			c0.1-0.3,0.5-0.5,0.8-0.4s0.5,0.5,0.4,0.8c-1.9,5.8-16.8,6.7-25.6,6.7c-6.7,0-8.5,4.7-8.6,4.9C96.2,208.1,96,208.2,95.7,208.2z"/>
		<path class="st2" d="M100,215.4c-0.1,0-0.3,0-0.4-0.1c-0.3-0.2-0.3-0.6-0.1-0.8c0.1-0.2,3.6-4.6,13-4.6c10,0,17.5-2.4,22.2-7
			c0.2-0.2,0.6-0.2,0.8,0s0.2,0.6,0,0.9l0,0c-4.9,4.9-12.6,7.4-23,7.4c-8.7,0-12,4.1-12,4.1C100.4,215.3,100.2,215.4,100,215.4z"/>
		<path class="st2" d="M102.9,222.6c-0.1,0-0.2,0-0.3-0.1c-0.3-0.1-0.4-0.5-0.3-0.8l0,0c2.3-4.2,6.8-6.8,11.6-6.6
			c10.1,0,18.9-2.1,23.7-5.6c0.3-0.2,0.6-0.2,0.8,0.1l0,0c0.2,0.3,0.1,0.6-0.1,0.8c-7.1,5.3-19.4,5.9-24.4,5.9
			c-4.3-0.2-8.4,2.1-10.5,5.9C103.4,222.5,103.2,222.6,102.9,222.6z"/>
		<path class="st2" d="M106.3,227.9c-0.1,0-0.1,0-0.2,0c-0.3-0.1-0.5-0.4-0.4-0.7c0.1-0.2,1.7-5.2,10.2-5.7
			c8.8-0.5,17.5-2.4,25.7-5.7c0.3-0.2,0.7-0.1,0.8,0.2c0.2,0.3,0.1,0.7-0.2,0.8c0,0-0.1,0-0.1,0.1c-8.3,3.4-17.2,5.4-26.1,5.8
			c-7.6,0.4-9,4.7-9.1,4.8C106.8,227.7,106.5,227.9,106.3,227.9z"/>
		<path class="st2" d="M340.2,86.8L340.2,86.8c-0.2,0-0.3-0.1-0.4-0.3l-17-27.5l-32.5-17.7c-0.2-0.1-0.3-0.3-0.3-0.5s0-0.4,0.2-0.5
			l24.3-22c0.1-0.1,0.3-0.2,0.4-0.2c0.2,0,0.3,0.1,0.4,0.2l1.3,1.4c0.2,0.3,0.1,0.7-0.2,0.8c-0.2,0.2-0.5,0.1-0.7-0.1l-0.9-1
			l-23.3,21.3l31.9,17.4c0.1,0.1,0.2,0.1,0.2,0.2l16.7,27l19.3-20.4l-0.3-0.9c-0.1-0.3,0.1-0.7,0.4-0.8c0.3-0.1,0.7,0.1,0.8,0.4
			l0.4,1.3c0.1,0.2,0,0.5-0.1,0.6l-20.1,21.3C340.5,86.8,340.4,86.8,340.2,86.8z"/>
		<path class="st2" d="M325.3,55.9c-0.1,0-0.1,0-0.2,0c-0.2-0.1-0.4-0.3-0.4-0.5s-0.3-5.5-5.4-5.4c-5.7,0.1-14-3.6-18-5.4l-0.4-0.2
			c-2.4-1.1-4.7-2.3-6.9-3.7c-0.2-0.1-0.3-0.3-0.3-0.5s0.1-0.4,0.2-0.5l23.2-21.1c0.2-0.2,0.5-0.2,0.8,0c4.6,3.2,9.9,5.4,15.4,6.4
			c7.8,1.1,12.5,5.2,12.8,11c0,0.2-0.1,0.3-0.2,0.5l-20.2,19.3C325.7,55.9,325.5,55.9,325.3,55.9z M319.5,48.7
			c3.1-0.1,5.8,2.2,6.2,5.3L345,35.7c-0.4-5.1-4.6-8.6-11.7-9.7c-5.6-1-10.9-3.1-15.6-6.3L295.4,40c1.9,1.2,4,2.3,6,3.2l0.4,0.2
			c3.9,1.8,12.1,5.4,17.5,5.3H319.5z"/>
		<path class="st2" d="M341.6,83.1c-0.1,0-0.3-0.1-0.4-0.1c-0.1-0.1-1.1-1-4.5-6.5c-2.4-3.9-3.5-8.6-4.3-12.4
			c-0.3-1.5-0.7-3-1.1-4.4c-1.2-3.3-6-3.7-6-3.7c-0.2,0-0.4-0.2-0.5-0.4c-0.1-0.2,0-0.5,0.2-0.7l20.2-19.3c0.1-0.1,0.2-0.2,0.4-0.2
			c4.7-0.2,8.1,4.2,10.7,14.2c2.2,8.6,5.9,11.4,5.9,11.4c0.1,0.1,0.2,0.3,0.3,0.4c0,0.2,0,0.3-0.2,0.5l-20.1,20.9
			C342,83,341.8,83.1,341.6,83.1z M326.7,54.9c1.7,0.4,4.8,1.4,5.8,4.3c0.5,1.5,0.9,3,1.2,4.6c0.8,3.7,1.8,8.3,4.2,12
			c1.2,2,2.5,3.9,3.9,5.8l19.2-20c-1.1-1.1-3.9-4.4-5.8-11.6c-2.4-9.1-5.3-13.3-9.2-13.3l0,0L326.7,54.9z"/>
		<path class="st2" d="M323,57.5c-0.2,0-0.4-0.1-0.5-0.2c-1.1-1.4-2.4-2.6-3.9-3.6c-1.9-1.1-3.9-2-6-2.7c-1.8-0.7-3.9-1.5-6.2-2.5
			c-0.3-0.1-0.4-0.5-0.3-0.8s0.5-0.4,0.8-0.3l0,0c2.3,1,4.4,1.8,6.2,2.5c2.2,0.7,4.3,1.7,6.2,2.9c1.6,1.1,3,2.4,4.2,3.8
			c0.2,0.3,0.2,0.6-0.1,0.9C323.3,57.4,323.2,57.5,323,57.5z"/>
		<path class="st2" d="M339.5,82.9c-0.2,0-0.4-0.1-0.5-0.3c-3.9-5.2-6.8-11-8.8-17.2c-0.2-0.5-0.3-1-0.5-1.4c-0.8-2-2.4-3.6-4.4-4.6
			c-0.3-0.1-0.5-0.4-0.4-0.8c0.1-0.3,0.4-0.5,0.8-0.4c0,0,0.1,0,0.1,0.1c2.3,1.1,4.1,2.9,5,5.3c0.2,0.4,0.3,0.9,0.5,1.4
			c1.9,6.1,4.9,11.8,8.7,16.9c0.2,0.3,0.1,0.6-0.1,0.8l0,0C339.8,82.9,339.7,82.9,339.5,82.9z"/>
		<path class="st2" d="M339.1,39.3c-0.3,0-0.5-0.2-0.6-0.5c-0.9-3.3-4.2-5.7-11.5-8.5c-4.1-1.5-8.1-3.2-12-5.1
			c-0.3-0.1-0.4-0.5-0.3-0.8s0.5-0.4,0.8-0.3c0,0,0,0,0.1,0c3.8,1.9,7.8,3.6,11.8,5.1c7.7,2.9,11.3,5.6,12.2,9.3
			c0.1,0.3-0.1,0.7-0.4,0.7l0,0L339.1,39.3z"/>
		<path class="st2" d="M335.6,43c-0.3,0-0.5-0.2-0.6-0.4c-0.9-3.3-4.2-5.7-11.5-8.5c-4.1-1.5-8.1-3.2-12-5.1
			c-0.3-0.1-0.4-0.5-0.3-0.8s0.5-0.4,0.8-0.3c0,0,0,0,0.1,0c3.8,1.9,7.8,3.6,11.8,5.1c7.7,2.9,11.3,5.6,12.2,9.3
			c0.1,0.3-0.1,0.6-0.4,0.7l0,0C335.7,42.9,335.7,43,335.6,43z"/>
		<path class="st2" d="M332.1,46.6c-0.3,0-0.5-0.2-0.6-0.4c-0.9-3.3-4.2-5.7-11.5-8.5c-4.1-1.5-8.1-3.2-12-5.1
			c-0.3-0.2-0.4-0.5-0.3-0.8c0.2-0.3,0.5-0.4,0.8-0.3l0,0c3.8,1.9,7.8,3.6,11.8,5.1c7.7,2.9,11.3,5.6,12.2,9.3
			C332.6,46.2,332.4,46.6,332.1,46.6L332.1,46.6L332.1,46.6z"/>
		<path class="st2" d="M328.6,50.2c-0.3,0-0.5-0.2-0.6-0.5c-0.9-3.3-4.2-5.7-11.5-8.5c-4.1-1.5-8.1-3.2-12-5.1
			c-0.3-0.2-0.4-0.5-0.3-0.8c0.2-0.3,0.5-0.4,0.8-0.3c3.8,1.9,7.8,3.6,11.8,5.1c7.7,2.9,11.3,5.6,12.2,9.3
			C329.1,49.7,328.9,50.1,328.6,50.2L328.6,50.2L328.6,50.2z"/>
		<path class="st2" d="M355.8,64L355.8,64c-4.1-0.3-7.2-8.9-9-16c-1.1-4.3-4.4-4.7-4.6-4.7c-0.3,0-0.6-0.3-0.5-0.7
			c0-0.3,0.3-0.6,0.7-0.5c0.2,0,4.3,0.5,5.6,5.6c2.4,9.3,5.4,14.9,7.9,15.1c0.3,0,0.6,0.3,0.6,0.6l0,0C356.4,63.8,356.1,64,355.8,64
			z"/>
		<path class="st2" d="M351.9,68.8c-0.1,0-0.2,0-0.3-0.1c-4.2-2.4-7.2-7.2-9-14.1c-1.5-5.7-4.7-7.2-4.7-7.2
			c-0.3-0.2-0.4-0.5-0.2-0.8c0.1-0.2,0.4-0.4,0.7-0.3c0.2,0,3.8,1.7,5.4,8c1.7,6.6,4.6,11.1,8.5,13.4c0.3,0.2,0.4,0.5,0.2,0.8
			C352.3,68.6,352.1,68.8,351.9,68.8z"/>
		<path class="st2" d="M347.9,71.8c-0.1,0-0.3,0-0.4-0.1c-4.8-3.8-7.3-12-8.2-15.3c-0.6-2.8-2.8-5.1-5.6-5.8
			c-0.3-0.1-0.5-0.4-0.5-0.7c0.1-0.3,0.4-0.5,0.7-0.5c3.3,0.8,5.8,3.4,6.5,6.7c1.7,6.7,4.6,12.2,7.8,14.7c0.3,0.2,0.3,0.6,0.1,0.8
			l0,0C348.3,71.8,348.1,71.8,347.9,71.8z"/>
		<path class="st2" d="M344.4,75.5c-0.2,0-0.4-0.1-0.5-0.2c-3.7-5-6.6-10.5-8.5-16.4c-1.6-4.8-4.5-5.1-4.6-5.1
			c-0.3,0-0.6-0.3-0.6-0.6c0-0.3,0.2-0.6,0.5-0.6h0.1c0.2,0,3.9,0.2,5.7,5.9c1.9,5.8,4.6,11.2,8.2,16.1c0.2,0.3,0.2,0.6-0.1,0.8
			C344.7,75.4,344.6,75.5,344.4,75.5z"/>
		<path class="st2" d="M124.6,101.3h-0.1l-4.4-1.1c-0.3-0.1-0.5-0.4-0.4-0.7c0-0.1,0-0.1,0.1-0.2l20.1-31.6c0.2-0.3,0.6-0.4,0.8-0.2
			c0.3,0.2,0.4,0.6,0.2,0.8l-19.7,30.9l3.1,0.8l19.9-29.7c0.2-0.3,0.5-0.3,0.8-0.2l31.8,18.3l3.5-3.5L145.5,67
			c-0.3-0.2-0.4-0.5-0.3-0.8s0.5-0.4,0.8-0.3l35.5,18.6c0.2,0.1,0.3,0.3,0.3,0.4c0,0.2,0,0.4-0.2,0.5l-4.4,4.4
			c-0.2,0.2-0.5,0.2-0.7,0.1l-31.7-18.3l-19.9,29.5C124.9,101.3,124.7,101.4,124.6,101.3z"/>
		<path class="st2" d="M180.2,139c-0.1,0-0.2,0-0.3-0.1l-26.7-15.3c-0.2-0.1-0.3-0.2-0.3-0.4l-8.7-52.4c-0.1-0.3,0.2-0.6,0.5-0.7
			s0.6,0.2,0.7,0.5l0,0l8.7,52.1l25.5,14.6l-3.7-45.2c0-0.3,0.2-0.6,0.6-0.7c0.3,0,0.6,0.2,0.7,0.6l0,0l3.7,46.4
			c0,0.2-0.1,0.4-0.3,0.6C180.4,138.9,180.3,139,180.2,139z"/>
		<path class="st2" d="M180.2,139c-0.3,0-0.6-0.3-0.6-0.6c0-0.1,0-0.2,0.1-0.3l4.3-8L180.7,85c0-0.3,0.2-0.6,0.6-0.6
			c0.3,0,0.6,0.2,0.6,0.6l3.3,45.3c0,0.1,0,0.2-0.1,0.3l-4.3,8.1C180.7,138.9,180.4,139,180.2,139z"/>
		<path class="st2" d="M135.5,148.3h-0.1c-0.2,0-0.4-0.2-0.5-0.5l-9.3-42.5c-0.1-0.3,0.1-0.7,0.5-0.7c0.3-0.1,0.6,0.1,0.7,0.5l0,0
			l9,41.2l17.2-23.5c0.2-0.3,0.6-0.3,0.8-0.1c0.3,0.2,0.3,0.6,0.1,0.8l-18,24.6C135.9,148.2,135.7,148.3,135.5,148.3z"/>
		<path class="st2" d="M135.5,148.3L135.5,148.3l-5-0.5c-0.3,0-0.5-0.2-0.5-0.5l-10.4-47.5c-0.1-0.3,0.1-0.7,0.5-0.7
			c0.3-0.1,0.7,0.1,0.7,0.5l10.3,47l4.5,0.5c0.3,0,0.6,0.3,0.6,0.6S135.9,148.3,135.5,148.3L135.5,148.3z"/>
		<path class="st2" d="M131.6,109c-0.3,0-0.6-0.3-0.6-0.6c0-0.1,0-0.3,0.1-0.4l14.2-19.6c0.2-0.3,0.5-0.3,0.8-0.2l0,0
			c0.3,0.2,0.3,0.6,0.1,0.8l0,0l-14.1,19.7C132,108.9,131.8,109,131.6,109z"/>
		<path class="st2" d="M132.7,118.2c-0.1,0-0.2,0-0.4-0.1c-0.3-0.2-0.3-0.6-0.1-0.8l14.2-19.6c0.2-0.3,0.6-0.3,0.8-0.1l0,0
			c0.3,0.2,0.3,0.6,0.1,0.8L133.1,118C133.1,118.2,132.9,118.3,132.7,118.2z"/>
		<path class="st2" d="M133.8,127.5c-0.1,0-0.3,0-0.4-0.1c-0.3-0.2-0.3-0.6-0.1-0.8l14.2-19.6c0.2-0.3,0.6-0.3,0.8-0.1l0,0
			c0.3,0.2,0.3,0.6,0.1,0.8l-14.2,19.6C134.2,127.4,134,127.5,133.8,127.5z"/>
		<path class="st2" d="M134.9,136.8c-0.1,0-0.3,0-0.4-0.1c-0.3-0.2-0.3-0.6-0.1-0.8l0,0l14.2-19.6c0.2-0.3,0.6-0.3,0.8-0.1
			c0.3,0.2,0.3,0.6,0.1,0.8l0,0l-14.2,19.6C135.2,136.7,135.1,136.8,134.9,136.8z"/>
		<path class="st2" d="M170.9,100.8c-0.1,0-0.2,0-0.3-0.1l-19.1-10.9c-0.3-0.2-0.4-0.5-0.2-0.8s0.5-0.4,0.8-0.2l19.1,10.9
			c0.3,0.2,0.4,0.5,0.2,0.8C171.3,100.7,171.1,100.8,170.9,100.8z"/>
		<path class="st2" d="M170.9,109.5c-0.1,0-0.2,0-0.3-0.1l-19.1-10.8c-0.3-0.1-0.4-0.5-0.3-0.8c0.1-0.3,0.5-0.4,0.8-0.3
			c0,0,0.1,0,0.1,0.1l19.1,10.9c0.3,0.2,0.4,0.5,0.2,0.8C171.3,109.4,171.1,109.5,170.9,109.5z"/>
		<path class="st2" d="M173.6,118.8c-0.1,0-0.2,0-0.3-0.1l-19.1-10.9c-0.3-0.2-0.4-0.5-0.2-0.8s0.5-0.4,0.8-0.2l19.1,10.9
			c0.3,0.2,0.4,0.5,0.2,0.8l0,0C174.1,118.7,173.9,118.8,173.6,118.8z"/>
		<path class="st2" d="M174.2,128.1c-0.1,0-0.2,0-0.3-0.1l-19.1-10.9c-0.3-0.2-0.4-0.5-0.2-0.8s0.5-0.4,0.8-0.2l19.1,10.9
			c0.3,0.2,0.4,0.5,0.2,0.8C174.6,127.9,174.4,128.1,174.2,128.1L174.2,128.1z"/>
		<path class="st2" d="M411.4,300.5c-0.1,0-0.1,0-0.2,0L374,285.6c-0.2-0.1-0.3-0.2-0.4-0.4c0-0.2,0-0.4,0.1-0.5l3.9-4.8
			c0.2-0.2,0.5-0.3,0.7-0.2l33.4,15l16.8-31.4c0.1-0.2,0.4-0.3,0.6-0.3l4.5,0.7c0.2,0,0.4,0.1,0.4,0.3c0.1,0.2,0.1,0.4,0,0.6
			l-16.9,33.5c-0.2,0.3-0.5,0.4-0.8,0.3c-0.3-0.2-0.4-0.5-0.3-0.8l16.5-32.8l-3.2-0.5l-16.6,31.4c-0.2,0.3-0.5,0.4-0.8,0.3l-33.5-15
			l-3.1,3.9l36.4,14.5c0.3,0.1,0.5,0.5,0.3,0.8C412,300.3,411.7,300.5,411.4,300.5z"/>
		<path class="st2" d="M412.1,296c-0.3,0-0.5-0.2-0.6-0.4l-13.9-51l-26.8-11.9l8.3,44.6c0.1,0.3-0.2,0.6-0.5,0.7s-0.6-0.2-0.7-0.5
			l-8.5-45.8c0-0.2,0-0.4,0.2-0.6c0.2-0.1,0.4-0.2,0.6-0.1l28.1,12.5c0.2,0.1,0.3,0.2,0.3,0.4l13.9,51.2c0.1,0.3-0.1,0.6-0.4,0.7
			L412.1,296z"/>
		<path class="st2" d="M374.3,285.6c-0.3,0-0.5-0.2-0.6-0.5l-7.8-44.7c0-0.1,0-0.2,0-0.3l3.5-8.6c0.2-0.3,0.5-0.4,0.8-0.3
			s0.4,0.4,0.3,0.7l-3.5,8.5l7.8,44.5C374.9,285.3,374.7,285.6,374.3,285.6C374.4,285.6,374.4,285.6,374.3,285.6L374.3,285.6z"/>
		<path class="st2" d="M427.1,260c-0.3,0-0.5-0.2-0.6-0.4l-13-40.2l-14.8,25.1c-0.2,0.3-0.5,0.4-0.8,0.2c-0.3-0.2-0.4-0.5-0.2-0.8
			l15.4-26.2c0.1-0.2,0.4-0.3,0.6-0.3s0.4,0.2,0.5,0.4l13.5,41.4c0.1,0.3-0.1,0.6-0.4,0.8l0,0H427.1z"/>
		<path class="st2" d="M433.6,264.8c-0.3,0-0.5-0.2-0.6-0.4l-15-45.8h-4.5c-0.3,0-0.6-0.3-0.6-0.6s0.3-0.6,0.6-0.6h4.9
			c0.3,0,0.5,0.2,0.6,0.4l15.1,46.2c0.1,0.3-0.1,0.6-0.4,0.8l0,0L433.6,264.8z"/>
		<path class="st2" d="M409.2,278.2c-0.1,0-0.2,0-0.3-0.1c-0.3-0.2-0.4-0.5-0.2-0.8l12.1-21c0.2-0.3,0.5-0.4,0.8-0.2
			c0.3,0.2,0.4,0.5,0.2,0.8l-12.1,21C409.6,278.1,409.4,278.2,409.2,278.2z"/>
		<path class="st2" d="M407.2,269.1c-0.1,0-0.2,0-0.3-0.1c-0.3-0.2-0.4-0.5-0.2-0.8l12.1-21c0.1-0.3,0.5-0.4,0.8-0.3
			s0.4,0.5,0.3,0.8c0,0,0,0.1-0.1,0.1l-12.1,21C407.7,269,407.4,269.1,407.2,269.1z"/>
		<path class="st2" d="M405.2,260c-0.1,0-0.2,0-0.3-0.1c-0.3-0.2-0.4-0.5-0.2-0.8l0,0l12.1-21c0.2-0.3,0.6-0.3,0.8-0.1
			c0.2,0.2,0.3,0.5,0.2,0.7l-12.1,21C405.6,259.9,405.4,260,405.2,260z"/>
		<path class="st2" d="M403.2,250.9c-0.1,0-0.2,0-0.3-0.1c-0.3-0.2-0.4-0.5-0.2-0.8l0,0l12.1-21c0.2-0.3,0.5-0.4,0.8-0.2
			s0.4,0.5,0.2,0.8l0,0l-12.1,21C403.5,250.7,403.4,250.8,403.2,250.9z"/>
		<path class="st2" d="M403.2,278.3c-0.1,0-0.2,0-0.2-0.1l-20.1-8.9c-0.3-0.1-0.4-0.5-0.3-0.8l0,0c0.1-0.3,0.5-0.4,0.8-0.3l0,0
			l20.1,8.9c0.3,0.1,0.5,0.4,0.5,0.7S403.5,278.4,403.2,278.3L403.2,278.3z"/>
		<path class="st2" d="M402.3,269.6c-0.1,0-0.2,0-0.2,0l-20.1-9c-0.3-0.1-0.5-0.5-0.4-0.8s0.5-0.5,0.8-0.4c0,0,0,0,0.1,0l20.1,8.9
			c0.3,0.1,0.5,0.4,0.5,0.7S402.7,269.7,402.3,269.6L402.3,269.6L402.3,269.6z"/>
		<path class="st2" d="M398.7,260.6c-0.1,0-0.2,0-0.2-0.1l-20.1-8.9c-0.3-0.1-0.4-0.5-0.3-0.8l0,0c0.1-0.3,0.5-0.4,0.8-0.3l0,0
			l20.1,8.9c0.3,0.1,0.4,0.5,0.3,0.8l0,0C399.1,260.5,398.9,260.6,398.7,260.6z"/>
		<path class="st2" d="M397.2,251.5c-0.1,0-0.2,0-0.2,0l-20.1-8.9c-0.3-0.1-0.5-0.4-0.4-0.8c0.1-0.3,0.4-0.5,0.8-0.4
			c0,0,0.1,0,0.1,0.1l20.1,8.9c0.3,0.1,0.4,0.5,0.3,0.8l0,0C397.6,251.4,397.4,251.5,397.2,251.5z"/>
	</g>
	<g id="freepik--Plants--inject-11">
		<path class="st0" d="M343.5,315.1c-3.4,8.4-6.9,1.6-6.3-33.4c0.3-16.4,1.4-50,19.6-42.6c17.5,7.1-5.6,56.8-5.6,56.8L343.5,315.1z
			 M368.4,320.1c0,0,37.9-39.5,23.7-51.9c-14.8-12.9-26.8,18.5-32.4,34c-11.9,33-10.8,40.5-4.8,33.7L368.4,320.1z M376.4,355.5
			c0,0,34.7-24.7,25.6-36.2c-9.4-12-23.2,10.3-29.7,21.3c-13.9,23.5-14.1,29.4-8.6,25L376.4,355.5z M385.8,390.8
			c0,0,34.7-24.7,25.6-36.2c-9.4-12-23.2,10.3-29.7,21.3c-13.9,23.5-14.1,29.4-8.6,25L385.8,390.8z M325.2,319.8
			c0,0-48.5-25.3-56.4-8.2c-8.2,17.8,25.3,20.5,41.7,21.5c35,2.1,41.9-1,33.7-4.8L325.2,319.8z M332.1,347.6c0,0-52.6-15.1-56.9,3.2
			c-4.5,19.1,28.8,15.1,45.1,12.8c34.7-4.8,40.8-9.3,32.1-11.4L332.1,347.6z M344.1,377.9c0,0-44.8-11.6-48.1,4.1
			c-3.4,16.2,24.7,12.1,38.5,9.8c29.3-4.9,34.3-8.8,26.8-10.4L344.1,377.9z M351.2,402.9c0,0-43.3-16.3-48.2-1.1
			c-5.1,15.8,23.3,14.7,37.2,13.8c29.6-1.8,35-5.1,27.8-7.5L351.2,402.9z M322.2,276.1c0,0-19.8-61.5-42.3-50.3
			c-23.4,11.6,3.6,39.4,17.1,52.6c28.8,28.3,37.8,30.3,34,20.4L322.2,276.1z"/>
		<path class="st3" d="M343.5,315.1c-3.4,8.4-6.9,1.6-6.3-33.4c0.3-16.4,1.4-50,19.6-42.6c17.5,7.1-5.6,56.8-5.6,56.8L343.5,315.1z
			 M368.4,320.1c0,0,37.9-39.5,23.7-51.9c-14.8-12.9-26.8,18.5-32.4,34c-11.9,33-10.8,40.5-4.8,33.7L368.4,320.1z M376.4,355.5
			c0,0,34.7-24.7,25.6-36.2c-9.4-12-23.2,10.3-29.7,21.3c-13.9,23.5-14.1,29.4-8.6,25L376.4,355.5z M385.8,390.8
			c0,0,34.7-24.7,25.6-36.2c-9.4-12-23.2,10.3-29.7,21.3c-13.9,23.5-14.1,29.4-8.6,25L385.8,390.8z M325.2,319.8
			c0,0-48.5-25.3-56.4-8.2c-8.2,17.8,25.3,20.5,41.7,21.5c35,2.1,41.9-1,33.7-4.8L325.2,319.8z M332.1,347.6c0,0-52.6-15.1-56.9,3.2
			c-4.5,19.1,28.8,15.1,45.1,12.8c34.7-4.8,40.8-9.3,32.1-11.4L332.1,347.6z M344.1,377.9c0,0-44.8-11.6-48.1,4.1
			c-3.4,16.2,24.7,12.1,38.5,9.8c29.3-4.9,34.3-8.8,26.8-10.4L344.1,377.9z M351.2,402.9c0,0-43.3-16.3-48.2-1.1
			c-5.1,15.8,23.3,14.7,37.2,13.8c29.6-1.8,35-5.1,27.8-7.5L351.2,402.9z M322.2,276.1c0,0-19.8-61.5-42.3-50.3
			c-23.4,11.6,3.6,39.4,17.1,52.6c28.8,28.3,37.8,30.3,34,20.4L322.2,276.1z"/>
		<path class="st4" d="M375.6,446.2c-0.4,0-0.7-0.3-0.7-0.7c-1.8-32.1-10.9-70.9-24.8-106.5c-11.7-29.9-61-90.2-61.5-90.8
			c-0.3-0.3-0.2-0.8,0.1-1.1c0.3-0.3,0.8-0.2,1.1,0.1l0,0c0.5,0.6,49.9,61.1,61.7,91.2c14,35.7,23,74.6,24.9,107
			C376.4,445.8,376.1,446.2,375.6,446.2L375.6,446.2z"/>
		<path class="st4" d="M340.9,319.7L340.9,319.7c-0.5-0.1-0.8-0.4-0.7-0.8l6.9-57.8c0.1-0.4,0.4-0.7,0.8-0.7
			c0.4,0.1,0.7,0.4,0.7,0.8l0,0l-6.9,57.8C341.6,319.4,341.3,319.7,340.9,319.7z"/>
		<path class="st4" d="M350.8,339.5c-0.1,0-0.2,0-0.3-0.1c-0.4-0.2-0.5-0.7-0.3-1l0,0l25-48.6c0.2-0.4,0.6-0.6,1-0.4s0.6,0.6,0.4,1
			c0,0.1,0,0.1-0.1,0.1l-25,48.7C351.4,339.4,351.1,339.5,350.8,339.5z"/>
		<path class="st4" d="M347.2,332.3h-0.1l-52.4-10.7c-0.4,0-0.7-0.4-0.7-0.8s0.4-0.7,0.8-0.7h0.1l52.4,10.7c0.4,0.1,0.7,0.5,0.6,0.9
			C347.8,332,347.5,332.3,347.2,332.3z"/>
		<path class="st4" d="M360.7,367.1c-0.4,0-0.7-0.4-0.7-0.8c0-0.1,0.1-0.3,0.1-0.4l30.8-35.2c0.3-0.3,0.7-0.3,1.1-0.1
			s0.3,0.7,0.1,1.1l0,0l-30.8,35.1C361.1,366.9,360.9,367,360.7,367.1z"/>
		<path class="st4" d="M356.4,355.5L356.4,355.5l-39.5-0.3c-0.4,0-0.7-0.3-0.7-0.8c0-0.4,0.3-0.7,0.8-0.7l39.5,0.3
			c0.4,0,0.7,0.3,0.7,0.8C357.1,355.2,356.8,355.5,356.4,355.5L356.4,355.5z"/>
		<path class="st4" d="M333.7,385.4c-0.4,0-0.7-0.3-0.8-0.7c0-0.4,0.3-0.8,0.7-0.8l30.3-1.2c0.4,0,0.8,0.3,0.8,0.7
			c0,0.4-0.3,0.8-0.7,0.8l0,0L333.7,385.4L333.7,385.4z"/>
		<path class="st4" d="M370.2,402.5c-0.2,0-0.3-0.1-0.4-0.2c-0.3-0.3-0.4-0.7-0.2-1.1l16.2-21.6c0.3-0.3,0.7-0.4,1.1-0.2
			c0.3,0.2,0.4,0.7,0.2,1l0,0L370.9,402C370.7,402.4,370.4,402.5,370.2,402.5z"/>
		<path class="st4" d="M371.4,410.6L371.4,410.6l-35.4-1.8c-0.4,0-0.7-0.4-0.7-0.8l0,0c0-0.4,0.4-0.7,0.8-0.7l35.5,1.8
			c0.4,0,0.7,0.4,0.7,0.8l0,0C372.2,410.3,371.8,410.6,371.4,410.6L371.4,410.6z"/>
		<path class="st0" d="M439.1,363c-6.1,2.3-4.3-2.9,14.7-19.8c8.9-7.9,27.3-23.8,32.3-10.5c4.8,12.8-32.9,24.9-32.9,24.9L439.1,363z
			 M448.7,378.7c0,0,39.6,0.7,39.2-12.9c-0.4-14.2-23-5.2-34-0.5c-23.4,9.9-26.8,14.1-20.3,13.9L448.7,378.7z M433.8,400.4
			c0,0,30.2,6.3,31.9-4.2c1.8-10.9-16.8-7.2-25.9-5.3c-19.3,4.2-22.6,6.9-17.5,7.7L433.8,400.4z M419.6,422.7c0,0,30.2,6.3,31.9-4.2
			c1.8-10.9-16.8-7.2-25.9-5.3c-19.3,4.2-22.6,6.9-17.5,7.7L419.6,422.7z M427.6,355.6c0,0-10.4-38.2-23.4-34
			c-13.5,4.4,1.5,23.5,9,32.7c16.1,19.7,21.1,21.7,19.1,15.6L427.6,355.6z M416.1,373c0,0-17.8-35.4-29.7-28.7
			c-12.4,7,6.2,22.7,15.3,30.3c19.7,16.1,25,17.2,21.8,11.5L416.1,373z M405.9,394.3c0,0-15.9-29.5-25.8-23.6
			c-10.3,6.2,5.7,19.1,13.7,25.3c17,13.2,21.6,13.9,18.7,9.2L405.9,394.3z M396.1,410.3c0,0-12.7-31.1-23.1-26.2
			c-10.9,5.1,3.7,19.6,10.9,26.6c15.5,14.9,20,16.1,17.6,11.1L396.1,410.3z M449.2,332.5c0,0,22.9-40.8,6-47.2
			c-17.7-6.7-19.2,21.3-19.6,35c-0.9,29.3,2.4,35,5.8,28.1L449.2,332.5z"/>
		<path class="st5" d="M439.1,363c-6.1,2.3-4.3-2.9,14.7-19.8c8.9-7.9,27.3-23.8,32.3-10.5c4.8,12.8-32.9,24.9-32.9,24.9L439.1,363z
			 M448.7,378.7c0,0,39.6,0.7,39.2-12.9c-0.4-14.2-23-5.2-34-0.5c-23.4,9.9-26.8,14.1-20.3,13.9L448.7,378.7z M433.8,400.4
			c0,0,30.2,6.3,31.9-4.2c1.8-10.9-16.8-7.2-25.9-5.3c-19.3,4.2-22.6,6.9-17.5,7.7L433.8,400.4z M419.6,422.7c0,0,30.2,6.3,31.9-4.2
			c1.8-10.9-16.8-7.2-25.9-5.3c-19.3,4.2-22.6,6.9-17.5,7.7L419.6,422.7z M427.6,355.6c0,0-10.4-38.2-23.4-34
			c-13.5,4.4,1.5,23.5,9,32.7c16.1,19.7,21.1,21.7,19.1,15.6L427.6,355.6z M416.1,373c0,0-17.8-35.4-29.7-28.7
			c-12.4,7,6.2,22.7,15.3,30.3c19.7,16.1,25,17.2,21.8,11.5L416.1,373z M405.9,394.3c0,0-15.9-29.5-25.8-23.6
			c-10.3,6.2,5.7,19.1,13.7,25.3c17,13.2,21.6,13.9,18.7,9.2L405.9,394.3z M396.1,410.3c0,0-12.7-31.1-23.1-26.2
			c-10.9,5.1,3.7,19.6,10.9,26.6c15.5,14.9,20,16.1,17.6,11.1L396.1,410.3z M449.2,332.5c0,0,22.9-40.8,6-47.2
			c-17.7-6.7-19.2,21.3-19.6,35c-0.9,29.3,2.4,35,5.8,28.1L449.2,332.5z"/>
		<path class="st4" d="M384,446.6c-0.2,0-0.4-0.1-0.5-0.2c-0.3-0.3-0.3-0.8,0-1.1c16.6-17.2,34.2-42.9,46-67.2
			c10.1-20.9,18-76.7,18.1-77.3c0.1-0.4,0.4-0.7,0.9-0.7c0.4,0.1,0.7,0.4,0.6,0.9c-0.1,0.6-8,56.6-18.2,77.7
			c-11.8,24.4-29.6,50.3-46.2,67.6C384.4,446.5,384.2,446.6,384,446.6z"/>
		<path class="st4" d="M435.8,364.3c-0.2,0-0.5-0.1-0.6-0.3c-0.2-0.3-0.2-0.8,0.2-1.1l34.2-24.7c0.3-0.3,0.8-0.3,1.1,0
			c0.3,0.3,0.3,0.8,0,1.1c-0.1,0.1-0.1,0.1-0.2,0.1l-34.2,24.8C436.1,364.2,435.9,364.3,435.8,364.3z"/>
		<path class="st4" d="M430.1,379.3c-0.4,0-0.7-0.4-0.7-0.8c0-0.3,0.2-0.6,0.5-0.7l38.1-10.6c0.4-0.1,0.8,0.1,0.9,0.5
			s-0.1,0.8-0.5,0.9l-38.1,10.6C430.2,379.3,430.2,379.3,430.1,379.3z"/>
		<path class="st4" d="M432.1,373.8c-0.3,0-0.5-0.1-0.6-0.4l-20-33.1c-0.2-0.4-0.1-0.8,0.2-1l0,0c0.4-0.2,0.8-0.1,1,0.3l20.1,33.1
			c0.2,0.4,0.1,0.8-0.3,1C432.4,373.8,432.3,373.8,432.1,373.8z"/>
		<path class="st4" d="M420.3,398.1c-0.4-0.1-0.7-0.4-0.7-0.9c0-0.3,0.3-0.6,0.7-0.7l33.8-0.9c0.4,0,0.8,0.3,0.8,0.7
			c0,0.4-0.3,0.8-0.7,0.8L420.3,398.1L420.3,398.1z"/>
		<path class="st4" d="M424.3,390.1c-0.2,0-0.4-0.1-0.6-0.2l-19.2-21.2c-0.3-0.3-0.3-0.8,0-1.1c0.3-0.3,0.8-0.3,1.1,0.1l0,0
			l19.3,21.2c0.2,0.3,0.2,0.8-0.2,1.1C424.5,390,424.4,390,424.3,390.1L424.3,390.1z"/>
		<path class="st4" d="M412.8,408.2c-0.2,0-0.4-0.1-0.5-0.2l-15.5-15.5c-0.3-0.3-0.3-0.8,0-1.1c0.3-0.3,0.7-0.3,1,0l15.5,15.5
			c0.3,0.3,0.3,0.8,0,1.1C413.2,408.2,413,408.2,412.8,408.2z"/>
		<path class="st4" d="M406.1,420.6c-0.4,0-0.7-0.4-0.7-0.8s0.3-0.6,0.6-0.7l19.5-2c0.4,0,0.8,0.3,0.8,0.7c0,0.4-0.3,0.7-0.6,0.8
			L406.1,420.6L406.1,420.6z"/>
		<path class="st4" d="M402.4,425.2c-0.2,0-0.5-0.1-0.6-0.3l-16.5-19.7c-0.3-0.3-0.2-0.8,0.1-1.1c0.3-0.3,0.8-0.2,1.1,0.1l0,0
			l16.5,19.7c0.3,0.3,0.2,0.8-0.1,1.1C402.8,425.1,402.6,425.2,402.4,425.2z"/>
		<path class="st0" d="M147.5,315.1c3.4,8.4,6.9,1.6,6.3-33.4c-0.3-16.4-1.4-50-19.6-42.6c-17.5,7.1,5.6,56.8,5.6,56.8L147.5,315.1z
			 M122.6,320.1c0,0-37.9-39.5-23.7-51.9c14.8-12.9,26.8,18.5,32.4,34c11.9,33,10.8,40.5,4.8,33.7L122.6,320.1z M114.6,355.5
			c0,0-34.7-24.7-25.6-36.2c9.4-12,23.2,10.3,29.7,21.3c13.9,23.5,14.1,29.4,8.6,25L114.6,355.5z M105.2,390.8
			c0,0-34.7-24.7-25.6-36.2c9.4-12,23.2,10.3,29.7,21.3c13.9,23.5,14.1,29.4,8.6,25L105.2,390.8z M165.8,319.8
			c0,0,48.5-25.3,56.4-8.2c8.2,17.8-25.3,20.5-41.7,21.5c-35,2.1-41.9-1-33.7-4.8L165.8,319.8z M158.9,347.6c0,0,52.6-15.1,56.9,3.2
			c4.5,19.1-28.8,15.1-45.1,12.8c-34.7-4.8-40.8-9.3-32.1-11.4L158.9,347.6z M146.9,377.9c0,0,44.8-11.6,48.1,4.1
			c3.4,16.2-24.7,12.1-38.5,9.8c-29.3-4.9-34.3-8.8-26.8-10.4L146.9,377.9z M139.8,402.9c0,0,43.3-16.2,48.3-1
			c5.1,15.8-23.3,14.7-37.2,13.8c-29.6-1.8-35-5.1-27.8-7.5L139.8,402.9z M168.8,276.1c0,0,19.8-61.5,42.3-50.3
			c23.4,11.6-3.6,39.4-17.1,52.6c-28.8,28.3-37.8,30.3-34,20.4L168.8,276.1z"/>
		<path class="st3" d="M147.5,315.1c3.4,8.4,6.9,1.6,6.3-33.4c-0.3-16.4-1.4-50-19.6-42.6c-17.5,7.1,5.6,56.8,5.6,56.8L147.5,315.1z
			 M122.6,320.1c0,0-37.9-39.5-23.7-51.9c14.8-12.9,26.8,18.5,32.4,34c11.9,33,10.8,40.5,4.8,33.7L122.6,320.1z M114.6,355.5
			c0,0-34.7-24.7-25.6-36.2c9.4-12,23.2,10.3,29.7,21.3c13.9,23.5,14.1,29.4,8.6,25L114.6,355.5z M105.2,390.8
			c0,0-34.7-24.7-25.6-36.2c9.4-12,23.2,10.3,29.7,21.3c13.9,23.5,14.1,29.4,8.6,25L105.2,390.8z M165.8,319.8
			c0,0,48.5-25.3,56.4-8.2c8.2,17.8-25.3,20.5-41.7,21.5c-35,2.1-41.9-1-33.7-4.8L165.8,319.8z M158.9,347.6c0,0,52.6-15.1,56.9,3.2
			c4.5,19.1-28.8,15.1-45.1,12.8c-34.7-4.8-40.8-9.3-32.1-11.4L158.9,347.6z M146.9,377.9c0,0,44.8-11.6,48.1,4.1
			c3.4,16.2-24.7,12.1-38.5,9.8c-29.3-4.9-34.3-8.8-26.8-10.4L146.9,377.9z M139.8,402.9c0,0,43.3-16.2,48.3-1
			c5.1,15.8-23.3,14.7-37.2,13.8c-29.6-1.8-35-5.1-27.8-7.5L139.8,402.9z M168.8,276.1c0,0,19.8-61.5,42.3-50.3
			c23.4,11.6-3.6,39.4-17.1,52.6c-28.8,28.3-37.8,30.3-34,20.4L168.8,276.1z"/>
		<path class="st4" d="M115.4,446.2L115.4,446.2c-0.4,0-0.7-0.4-0.7-0.8c1.8-32.3,10.9-71.3,24.9-106.9
			c11.8-30.1,61.2-90.6,61.7-91.2c0.3-0.3,0.7-0.4,1.1-0.1l0,0c0.3,0.3,0.4,0.7,0.1,1.1c-0.5,0.6-49.8,60.9-61.5,90.8
			c-13.9,35.5-22.9,74.3-24.8,106.5C116.1,445.9,115.8,446.2,115.4,446.2z"/>
		<path class="st4" d="M150.1,319.7c-0.4,0-0.7-0.3-0.7-0.7l-6.9-57.8c-0.1-0.4,0.2-0.8,0.7-0.8s0.8,0.2,0.8,0.7l6.9,57.8
			C150.9,319.3,150.6,319.6,150.1,319.7L150.1,319.7z"/>
		<path class="st4" d="M140.2,339.5c-0.3,0-0.5-0.2-0.7-0.4l-25-48.6c-0.2-0.4,0-0.8,0.3-1l0,0c0.4-0.2,0.8,0,1,0.3l25,48.6
			c0.2,0.4,0,0.8-0.3,1l0,0C140.4,339.5,140.3,339.5,140.2,339.5z"/>
		<path class="st4" d="M143.8,332.3c-0.4,0-0.7-0.3-0.7-0.6c-0.1-0.4,0.2-0.8,0.6-0.9l52.4-10.7c0.4-0.1,0.8,0.1,0.9,0.5
			c0.1,0.4-0.1,0.8-0.5,0.9h-0.1L144,332.2L143.8,332.3z"/>
		<path class="st4" d="M130.3,367.1c-0.2,0-0.4-0.1-0.6-0.3L99,331.7c-0.3-0.3-0.2-0.8,0.1-1.1c0.3-0.3,0.8-0.2,1.1,0.1l0,0l30.8,35
			c0.2,0.3,0.2,0.8-0.2,1.1C130.6,366.9,130.5,367,130.3,367.1L130.3,367.1z"/>
		<path class="st4" d="M134.6,355.5c-0.4,0-0.8-0.3-0.8-0.7l0,0c0-0.4,0.3-0.8,0.7-0.8l39.5-0.3l0,0c0.4,0,0.8,0.3,0.8,0.7l0,0
			c0,0.4-0.3,0.8-0.7,0.8L134.6,355.5z"/>
		<path class="st4" d="M157.3,385.4L157.3,385.4l-30.3-1.2c-0.4-0.1-0.7-0.5-0.6-0.9c0.1-0.3,0.3-0.6,0.7-0.6l30.3,1.2
			c0.4,0,0.7,0.4,0.7,0.8C158.1,385.1,157.7,385.4,157.3,385.4z"/>
		<path class="st4" d="M120.8,402.5c-0.2,0-0.5-0.1-0.6-0.3L104,380.6c-0.3-0.3-0.2-0.8,0.1-1.1l0,0c0.3-0.2,0.8-0.2,1.1,0.2
			l16.2,21.6c0.2,0.3,0.2,0.8-0.2,1.1C121.1,402.5,121,402.5,120.8,402.5z"/>
		<path class="st4" d="M119.6,410.6c-0.4,0-0.7-0.3-0.8-0.7c0-0.4,0.3-0.8,0.7-0.8l0,0l35.5-1.8c0.4,0,0.8,0.3,0.8,0.7l0,0
			c0,0.4-0.3,0.8-0.7,0.8l0,0L119.6,410.6L119.6,410.6z"/>
		<path class="st0" d="M52,363c6.1,2.3,4.2-2.9-14.7-19.8C28.4,335.3,10,319.4,5,332.7c-4.8,12.8,32.9,24.9,32.9,24.9L52,363z
			 M42.3,378.7c0,0-39.6,0.7-39.2-12.9c0.4-14.2,22.9-5.2,34-0.5c23.4,9.9,26.8,14.1,20.3,13.9L42.3,378.7z M57.2,400.4
			c0,0-30.2,6.3-31.9-4.2c-1.7-10.9,16.8-7.2,25.9-5.3c19.3,4.2,22.6,6.9,17.5,7.7L57.2,400.4z M71.4,422.7c0,0-30.2,6.3-31.9-4.2
			c-1.8-10.9,16.8-7.2,25.9-5.3c19.3,4.2,22.6,6.9,17.5,7.7L71.4,422.7z M63.4,355.6c0,0,10.4-38.2,23.4-34
			c13.5,4.4-1.5,23.5-9,32.7C61.7,374,56.7,376,58.7,369.9L63.4,355.6z M74.9,373c0,0,17.8-35.4,29.7-28.7
			c12.4,7-6.2,22.8-15.4,30.3c-19.7,16.1-25,17.1-21.8,11.4L74.9,373z M85.1,394.3c0,0,15.9-29.5,25.8-23.6
			c10.3,6.2-5.7,19.1-13.7,25.3c-17,13.2-21.6,13.9-18.7,9.2L85.1,394.3z M94.9,410.3c0,0,12.7-31.1,23.1-26.2
			c10.9,5.1-3.7,19.6-10.9,26.6c-15.5,14.9-20,16.1-17.6,11.1L94.9,410.3z M41.8,332.5c0,0-22.9-40.8-6-47.2
			c17.7-6.7,19.2,21.3,19.6,35c0.9,29.3-2.4,35-5.8,28.1L41.8,332.5z"/>
		<path class="st5" d="M52,363c6.1,2.3,4.2-2.9-14.7-19.8C28.4,335.3,10,319.4,5,332.7c-4.8,12.8,32.9,24.9,32.9,24.9L52,363z
			 M42.3,378.7c0,0-39.6,0.7-39.2-12.9c0.4-14.2,22.9-5.2,34-0.5c23.4,9.9,26.8,14.1,20.3,13.9L42.3,378.7z M57.2,400.4
			c0,0-30.2,6.3-31.9-4.2c-1.7-10.9,16.8-7.2,25.9-5.3c19.3,4.2,22.6,6.9,17.5,7.7L57.2,400.4z M71.4,422.7c0,0-30.2,6.3-31.9-4.2
			c-1.8-10.9,16.8-7.2,25.9-5.3c19.3,4.2,22.6,6.9,17.5,7.7L71.4,422.7z M63.4,355.6c0,0,10.4-38.2,23.4-34
			c13.5,4.4-1.5,23.5-9,32.7C61.7,374,56.7,376,58.7,369.9L63.4,355.6z M74.9,373c0,0,17.8-35.4,29.7-28.7
			c12.4,7-6.2,22.8-15.4,30.3c-19.7,16.1-25,17.1-21.8,11.4L74.9,373z M85.1,394.3c0,0,15.9-29.5,25.8-23.6
			c10.3,6.2-5.7,19.1-13.7,25.3c-17,13.2-21.6,13.9-18.7,9.2L85.1,394.3z M94.9,410.3c0,0,12.7-31.1,23.1-26.2
			c10.9,5.1-3.7,19.6-10.9,26.6c-15.5,14.9-20,16.1-17.6,11.1L94.9,410.3z M41.8,332.5c0,0-22.9-40.8-6-47.2
			c17.7-6.7,19.2,21.3,19.6,35c0.9,29.3-2.4,35-5.8,28.1L41.8,332.5z"/>
		<path class="st4" d="M107,446.6c-0.2,0-0.4-0.1-0.5-0.2c-16.7-17.3-34.4-43.1-46.2-67.6C50,357.7,42.1,301.7,42,301.1
			c-0.1-0.4,0.2-0.8,0.6-0.9c0.4-0.1,0.8,0.2,0.9,0.7c0.1,0.6,7.9,56.4,18.1,77.3c11.8,24.3,29.4,50,46,67.2c0.3,0.3,0.3,0.8,0,1.1
			C107.4,446.6,107.2,446.7,107,446.6z"/>
		<path class="st4" d="M55.2,364.3c-0.2,0-0.3-0.1-0.4-0.1l-34.2-24.7c-0.4-0.2-0.5-0.7-0.3-1c0.2-0.4,0.7-0.5,1-0.3
			c0.1,0,0.1,0.1,0.2,0.1L55.7,363c0.3,0.3,0.4,0.7,0.2,1.1C55.7,364.2,55.5,364.3,55.2,364.3z"/>
		<path class="st4" d="M60.9,379.3c-0.1,0-0.1,0-0.2,0l-38.2-10.6c-0.4-0.1-0.6-0.5-0.5-0.9s0.5-0.6,0.9-0.5l38.2,10.6
			c0.4,0.1,0.6,0.6,0.5,1C61.5,379,61.2,379.3,60.9,379.3z"/>
		<path class="st4" d="M58.9,373.8c-0.1,0-0.3,0-0.4-0.1c-0.4-0.2-0.5-0.7-0.3-1l20.1-33.1c0.2-0.4,0.6-0.5,1-0.4
			c0.4,0.2,0.5,0.6,0.4,1c0,0.1-0.1,0.1-0.1,0.1l-20.1,33.1C59.4,373.7,59.1,373.8,58.9,373.8z"/>
		<path class="st4" d="M70.7,398.1L70.7,398.1l-33.8-0.9c-0.4,0-0.7-0.4-0.7-0.8s0.4-0.7,0.8-0.7l33.8,0.9c0.4,0,0.7,0.3,0.7,0.8
			l0,0C71.5,397.7,71.2,398.1,70.7,398.1L70.7,398.1z"/>
		<path class="st4" d="M66.7,390.1c-0.4,0-0.7-0.4-0.7-0.8c0-0.2,0.1-0.3,0.2-0.4l19.2-21.2c0.3-0.3,0.8-0.3,1.1-0.1l0,0
			c0.3,0.3,0.3,0.8,0,1.1l-19.2,21.2C67.1,390,66.9,390.1,66.7,390.1z"/>
		<path class="st4" d="M78.2,408.2c-0.4,0-0.8-0.4-0.7-0.8c0-0.2,0.1-0.4,0.2-0.5l15.5-15.5c0.3-0.3,0.8-0.3,1.1,0
			c0.3,0.3,0.3,0.7,0,1l-15.5,15.5C78.6,408.1,78.4,408.2,78.2,408.2z"/>
		<path class="st4" d="M84.9,420.6L84.9,420.6l-19.6-2c-0.4-0.1-0.7-0.5-0.6-0.9s0.4-0.6,0.8-0.6l19.5,2c0.4,0.1,0.7,0.5,0.6,0.9
			C85.5,420.3,85.3,420.5,84.9,420.6z"/>
		<path class="st4" d="M88.6,425.2c-0.2,0-0.3-0.1-0.5-0.2c-0.3-0.3-0.4-0.7-0.1-1.1l16.5-19.7c0.3-0.3,0.7-0.4,1.1-0.1l0,0
			c0.3,0.3,0.4,0.7,0.1,1.1l-16.5,19.7C89,425.1,88.8,425.2,88.6,425.2z"/>
	</g>
	<g id="freepik--Character--inject-11">
		<rect x="164.6" y="311" class="st6" width="127.7" height="26.1"/>
		<path class="st2" d="M292.3,337.7H164.6c-0.3,0-0.6-0.3-0.6-0.6V311c0-0.3,0.3-0.6,0.6-0.6h127.7c0.3,0,0.6,0.3,0.6,0.6v26.1
			C292.9,337.5,292.7,337.7,292.3,337.7z M165.2,336.5h126.5v-24.9H165.2V336.5z"/>
		<path class="st2" d="M188.4,318.4H166c-0.3,0-0.6-0.3-0.6-0.6s0.3-0.6,0.6-0.6h22.4c0.3,0,0.6,0.3,0.6,0.6
			S188.7,318.4,188.4,318.4z"/>
		<path class="st2" d="M198.9,325.5h-3.1c-0.3,0-0.6-0.3-0.6-0.6c0-0.3,0.3-0.6,0.6-0.6h3.1c0.3,0,0.6,0.3,0.6,0.6
			S199.2,325.5,198.9,325.5z"/>
		<path class="st2" d="M190.8,325.5h-25.1c-0.3,0-0.6-0.3-0.6-0.6c0-0.3,0.3-0.6,0.6-0.6h25.1c0.3,0,0.6,0.3,0.6,0.6
			C191.4,325.2,191.1,325.5,190.8,325.5z"/>
		<path class="st2" d="M176.5,332.9h-10.3c-0.3,0-0.6-0.3-0.6-0.6c0-0.3,0.3-0.6,0.6-0.6h10.3c0.3,0,0.6,0.3,0.6,0.6
			C177.1,332.6,176.8,332.9,176.5,332.9z"/>
		<path class="st6" d="M266.1,311.9c-2.2,8.1-2.2,16.6,0,24.6h51.5c0,0-5.4-15.6,0-24.6H266.1z"/>
		<path class="st2" d="M317.6,337.1h-51.5c-0.3,0-0.5-0.2-0.6-0.4c-2.2-8.2-2.2-16.8,0-25c0.1-0.3,0.3-0.4,0.6-0.4h51.5
			c0.3,0,0.6,0.3,0.6,0.6c0,0.1,0,0.2-0.1,0.3c-5.2,8.7,0,24,0,24.2c0.1,0.3-0.1,0.7-0.4,0.8C317.6,337.1,317.6,337.2,317.6,337.1
			L317.6,337.1z M266.6,335.9h50.2c-1-3.2-4.3-15.3-0.2-23.4h-50C264.6,320.2,264.6,328.2,266.6,335.9z"/>
		<g>
			<g>
				<defs>
					<path id="SVGID_1_" d="M266.1,311.9c-2.2,8.1-2.2,16.6,0,24.6h51.5c0,0-5.4-15.6,0-24.6H266.1z"/>
				</defs>
				<clipPath id="SVGID_2_">
					<use xlink:href="#SVGID_1_"  style="overflow:visible;"/>
				</clipPath>
			</g>
			<g>
				<defs>
					<path id="SVGID_3_" d="M266.1,311.9c-2.2,8.1-2.2,16.6,0,24.6h51.5c0,0-5.4-15.6,0-24.6H266.1z"/>
				</defs>
				<defs>
					<path id="SVGID_4_" d="M317.6,337.1h-51.5c-0.3,0-0.5-0.2-0.6-0.4c-2.2-8.2-2.2-16.8,0-25c0.1-0.3,0.3-0.4,0.6-0.4h51.5
						c0.3,0,0.6,0.3,0.6,0.6c0,0.1,0,0.2-0.1,0.3c-5.2,8.7,0,24,0,24.2c0.1,0.3-0.1,0.7-0.4,0.8
						C317.6,337.1,317.6,337.2,317.6,337.1L317.6,337.1z M266.6,335.9h50.2c-1-3.2-4.3-15.3-0.2-23.4h-50
						C264.6,320.2,264.6,328.2,266.6,335.9z"/>
				</defs>
				<clipPath id="SVGID_5_">
					<use xlink:href="#SVGID_3_"  style="overflow:visible;"/>
				</clipPath>
				<clipPath id="SVGID_6_" class="st7">
					<use xlink:href="#SVGID_4_"  style="overflow:visible;"/>
				</clipPath>
				<g class="st8">
					<g class="st9">
						<path d="M266.1,311.9c-2.2,8.1-2.2,16.6,0,24.6h51.5c0,0-5.4-15.6,0-24.6H266.1z"/>
						<path class="st2" d="M317.6,337.1h-51.5c-0.3,0-0.5-0.2-0.6-0.4c-2.2-8.2-2.2-16.8,0-25c0.1-0.3,0.3-0.4,0.6-0.4h51.5
							c0.3,0,0.6,0.3,0.6,0.6c0,0.1,0,0.2-0.1,0.3c-5.2,8.7,0,24,0,24.2c0.1,0.3-0.1,0.7-0.4,0.8
							C317.6,337.1,317.6,337.2,317.6,337.1L317.6,337.1z M266.6,335.9h50.2c-1-3.2-4.3-15.3-0.2-23.4h-50
							C264.6,320.2,264.6,328.2,266.6,335.9z"/>
					</g>
				</g>
			</g>
		</g>
		<path class="st2" d="M166.1,332.3v-17.8c0-0.9,0.7-1.7,1.7-1.7h151.9c0.7,0,1.2-0.5,1.2-1.2l0,0c0-0.7-0.5-1.2-1.2-1.2h-156
			c-0.9,0-1.7,0.7-1.7,1.7v22.8c0,1.5,1.2,2.7,2.7,2.7l0,0h154.9c0.7,0,1.2-0.5,1.2-1.2l0,0c0-0.7-0.5-1.2-1.2-1.2H168.8
			C167.3,335.1,166.1,333.8,166.1,332.3L166.1,332.3z"/>
		<path class="st2" d="M319.7,338.1h-155c-1.8,0-3.3-1.5-3.3-3.3V312c0-1.2,1-2.3,2.3-2.3h156c1-0.1,1.9,0.7,2,1.7s-0.7,1.9-1.7,2
			c-0.1,0-0.2,0-0.3,0H167.8c-0.6,0-1.1,0.5-1.1,1.1v17.8c0,1.1,0.9,2.1,2.1,2.1h150.8c1-0.1,1.9,0.7,2,1.7s-0.7,1.9-1.7,2
			C319.9,338.1,319.8,338.1,319.7,338.1z M163.7,310.9c-0.6,0-1.1,0.5-1.1,1.1v22.8c0,1.1,0.9,2.1,2.1,2.1h154.9
			c0.4,0,0.7-0.2,0.7-0.6s-0.2-0.7-0.6-0.7c-0.1,0-0.1,0-0.2,0H168.8c-1.8,0-3.3-1.5-3.3-3.3l0,0v-17.8c0-1.2,1-2.3,2.3-2.3h151.9
			c0.4,0,0.7-0.2,0.7-0.6s-0.2-0.7-0.6-0.7c-0.1,0-0.1,0-0.2,0H163.7z"/>
		<rect x="164.6" y="364.9" class="st6" width="127.7" height="26.1"/>
		<path class="st2" d="M292.3,391.7H164.6c-0.3,0-0.6-0.3-0.6-0.6V365c0-0.3,0.3-0.6,0.6-0.6h127.7c0.3,0,0.6,0.3,0.6,0.6v26.1
			C292.9,391.4,292.7,391.7,292.3,391.7z M165.2,390.5h126.5v-24.9H165.2V390.5z"/>
		<path class="st2" d="M189.2,370.5h-22.4c-0.3,0-0.6-0.3-0.6-0.6s0.3-0.6,0.6-0.6h22.4c0.3,0,0.6,0.3,0.6,0.6
			S189.6,370.5,189.2,370.5z"/>
		<path class="st2" d="M199.7,377.7h-3.1c-0.3,0-0.6-0.3-0.6-0.6c0-0.3,0.3-0.6,0.6-0.6h3.1c0.3,0,0.6,0.3,0.6,0.6
			S200,377.7,199.7,377.7z"/>
		<path class="st2" d="M191.6,377.7h-25.1c-0.3,0-0.6-0.3-0.6-0.6s0.3-0.6,0.6-0.6h25.1c0.3,0,0.6,0.3,0.6,0.6
			S191.9,377.7,191.6,377.7z"/>
		<path class="st2" d="M177.3,385.1H167c-0.3,0-0.6-0.3-0.6-0.6s0.3-0.6,0.6-0.6h10.3c0.3,0,0.6,0.3,0.6,0.6
			S177.6,385.1,177.3,385.1z"/>
		<path class="st6" d="M266.9,365.8c-2.2,8.1-2.2,16.6,0,24.6h50.7c0,0-5.4-15.6,0-24.6H266.9z"/>
		<path class="st2" d="M317.6,391.1h-50.7c-0.3,0-0.5-0.2-0.6-0.5c-2.2-8.2-2.2-16.8,0-25c0.1-0.2,0.3-0.4,0.6-0.4h50.7
			c0.2,0,0.4,0.1,0.5,0.3c0.1,0.2,0.1,0.4,0,0.6c-5.2,8.7,0,24,0,24.2c0.1,0.2,0,0.4-0.1,0.6C317.9,391,317.7,391.1,317.6,391.1z
			 M267.4,389.9h49.3c-1-3.2-4.3-15.3-0.2-23.4h-49.2C265.4,374.1,265.4,382.2,267.4,389.9z"/>
		<g>
			<g>
				<defs>
					<path id="SVGID_7_" d="M266.9,365.8c-2.2,8.1-2.2,16.6,0,24.6h50.7c0,0-5.4-15.6,0-24.6H266.9z"/>
				</defs>
				<clipPath id="SVGID_8_">
					<use xlink:href="#SVGID_7_"  style="overflow:visible;"/>
				</clipPath>
			</g>
			<g>
				<defs>
					<path id="SVGID_9_" d="M266.9,365.8c-2.2,8.1-2.2,16.6,0,24.6h50.7c0,0-5.4-15.6,0-24.6H266.9z"/>
				</defs>
				<defs>
					<path id="SVGID_10_" d="M317.6,391.1h-50.7c-0.3,0-0.5-0.2-0.6-0.5c-2.2-8.2-2.2-16.8,0-25c0.1-0.2,0.3-0.4,0.6-0.4h50.7
						c0.2,0,0.4,0.1,0.5,0.3c0.1,0.2,0.1,0.4,0,0.6c-5.2,8.7,0,24,0,24.2c0.1,0.2,0,0.4-0.1,0.6C317.9,391,317.7,391.1,317.6,391.1z
						 M267.4,389.9h49.3c-1-3.2-4.3-15.3-0.2-23.4h-49.2C265.4,374.1,265.4,382.2,267.4,389.9z"/>
				</defs>
				<clipPath id="SVGID_11_">
					<use xlink:href="#SVGID_9_"  style="overflow:visible;"/>
				</clipPath>
				<clipPath id="SVGID_12_" class="st10">
					<use xlink:href="#SVGID_10_"  style="overflow:visible;"/>
				</clipPath>
				<g class="st11">
					<g class="st9">
						<path d="M266.9,365.8c-2.2,8.1-2.2,16.6,0,24.6h50.7c0,0-5.4-15.6,0-24.6H266.9z"/>
						<path class="st2" d="M317.6,391.1h-50.7c-0.3,0-0.5-0.2-0.6-0.5c-2.2-8.2-2.2-16.8,0-25c0.1-0.2,0.3-0.4,0.6-0.4h50.7
							c0.2,0,0.4,0.1,0.5,0.3c0.1,0.2,0.1,0.4,0,0.6c-5.2,8.7,0,24,0,24.2c0.1,0.2,0,0.4-0.1,0.6C317.9,391,317.7,391.1,317.6,391.1
							z M267.4,389.9h49.3c-1-3.2-4.3-15.3-0.2-23.4h-49.2C265.4,374.1,265.4,382.2,267.4,389.9z"/>
					</g>
				</g>
			</g>
		</g>
		<path class="st2" d="M166.1,386.2v-17.9c0-0.9,0.7-1.7,1.7-1.7h151.9c0.7,0,1.2-0.5,1.2-1.2l0,0c0-0.7-0.5-1.2-1.2-1.2h-156
			c-0.9,0-1.7,0.7-1.7,1.7v22.9c0,1.5,1.2,2.7,2.7,2.7h154.9c0.7,0,1.2-0.5,1.2-1.2l0,0c0-0.7-0.5-1.2-1.2-1.2H168.8
			c-1.5,0-2.7-1.2-2.7-2.7C166.1,386.4,166.1,386.3,166.1,386.2z"/>
		<path class="st2" d="M319.7,392h-155c-1.8,0-3.3-1.5-3.3-3.3v-22.9c0-1.2,1-2.3,2.3-2.3h156c1-0.1,1.9,0.7,2,1.7s-0.7,1.9-1.7,2
			c-0.1,0-0.2,0-0.3,0H167.8c-0.6,0-1.1,0.5-1.1,1.1v17.9c0,1.1,0.9,2.1,2.1,2.1h150.8c1-0.1,1.9,0.7,2,1.7s-0.7,1.9-1.7,2
			C319.9,392,319.8,392,319.7,392z M163.7,364.8c-0.6,0-1.1,0.5-1.1,1.1v22.8c0,1.1,0.9,2.1,2.1,2.1h154.9c0.4,0,0.7-0.2,0.7-0.6
			s-0.2-0.7-0.6-0.7c-0.1,0-0.1,0-0.2,0H168.8c-1.8,0-3.3-1.5-3.3-3.3v-17.9c0-1.2,1-2.3,2.3-2.3h151.9c0.4,0,0.7-0.2,0.7-0.6
			s-0.2-0.7-0.6-0.7c-0.1,0-0.1,0-0.2,0H163.7V364.8z"/>
		<path class="st6" d="M166.3,416c0.9-3,4.2-15.4,0.1-23.4h146.9V416H166.3z"/>
		<path class="st2" d="M313.3,416.6h-147c-0.2,0-0.4-0.1-0.5-0.2c-0.1-0.2-0.2-0.4-0.1-0.5c0.7-2.4,4.2-15.1,0.2-22.9
			c-0.1-0.2-0.1-0.4,0-0.6s0.3-0.3,0.5-0.3h146.9c0.3,0,0.6,0.3,0.6,0.6v23.4C313.9,416.3,313.7,416.6,313.3,416.6
			C313.4,416.6,313.3,416.6,313.3,416.6z M167.1,415.4h145.6v-22.2H167.3C170.6,400.7,168.2,411.2,167.1,415.4z"/>
		<path class="st2" d="M254,398.4h-22.4c-0.3,0-0.6-0.3-0.6-0.6s0.3-0.6,0.6-0.6H254c0.3,0,0.6,0.3,0.6,0.6S254.3,398.4,254,398.4z"
			/>
		<path class="st2" d="M224.1,405.6H221c-0.3,0-0.6-0.3-0.6-0.6c0-0.3,0.3-0.6,0.6-0.6h3.1c0.3,0,0.6,0.3,0.6,0.6
			C224.7,405.3,224.4,405.6,224.1,405.6z"/>
		<path class="st2" d="M254.3,405.6h-25.1c-0.3,0-0.6-0.3-0.6-0.6c0-0.3,0.3-0.6,0.6-0.6h25.1c0.3,0,0.6,0.3,0.6,0.6
			S254.7,405.6,254.3,405.6z"/>
		<path class="st2" d="M253.8,412.9h-10.3c-0.3,0-0.6-0.3-0.6-0.6s0.3-0.6,0.6-0.6h10.3c0.3,0,0.6,0.3,0.6,0.6
			S254.1,412.9,253.8,412.9z"/>
		<path class="st2" d="M254.8,413.6v-17.9c0-0.9-0.7-1.7-1.7-1.7h-89.9c-0.7,0-1.2-0.5-1.2-1.2l0,0c0-0.7,0.5-1.2,1.2-1.2h155.9
			c0.9,0,1.7,0.7,1.7,1.7v22.9c0,1.5-1.2,2.7-2.7,2.7H163.3c-0.7,0-1.2-0.5-1.2-1.2l0,0c0-0.7,0.5-1.2,1.2-1.2h88.9
			c1.5,0,2.7-1.2,2.7-2.7C254.8,413.7,254.8,413.7,254.8,413.6z"/>
		<path class="st2" d="M318.2,419.4H163.3c-1,0.1-1.9-0.7-2-1.7s0.7-1.9,1.7-2c0.1,0,0.2,0,0.3,0h88.9c1.1,0,2.1-0.9,2.1-2.1v-17.9
			c0-0.6-0.4-1-1-1.1h-89.9c-1,0.1-1.9-0.7-2-1.7s0.7-1.9,1.7-2c0.1,0,0.2,0,0.3,0h155.9c1.2,0,2.3,1,2.3,2.3v22.9
			C321.5,417.9,320,419.4,318.2,419.4L318.2,419.4z M163.3,416.9c-0.4,0-0.7,0.2-0.7,0.6s0.2,0.7,0.6,0.7c0.1,0,0.1,0,0.2,0h154.9
			c1.1,0,2.1-0.9,2.1-2.1v-22.9c0-0.6-0.5-1.1-1.1-1.1h-156c-0.4,0-0.7,0.2-0.7,0.6s0.2,0.7,0.6,0.7c0.1,0,0.1,0,0.2,0h89.9
			c1.2,0,2.3,1,2.3,2.3v17.9c0,1.8-1.5,3.3-3.3,3.3H163.3z"/>
		<path class="st6" d="M166.3,443.3c0.9-3,4.2-15.4,0.1-23.3h146.9v23.3H166.3z"/>
		<path class="st2" d="M313.3,443.9h-147c-0.2,0-0.4-0.1-0.5-0.2c-0.1-0.2-0.2-0.3-0.1-0.5c0.7-2.4,4.2-15.1,0.2-22.9
			c-0.1-0.2-0.1-0.4,0-0.6s0.3-0.3,0.5-0.3h146.9c0.3,0,0.6,0.3,0.6,0.6v23.3C313.9,443.6,313.7,443.9,313.3,443.9
			C313.4,443.9,313.3,443.9,313.3,443.9z M167.1,442.7h145.6v-22.1H167.3C170.6,428.1,168.2,438.6,167.1,442.7z"/>
		<path class="st2" d="M253.9,425.9h-22.4c-0.3,0-0.6-0.3-0.6-0.6s0.3-0.6,0.6-0.6h22.4c0.3,0,0.6,0.3,0.6,0.6
			C254.5,425.6,254.3,425.9,253.9,425.9z"/>
		<path class="st2" d="M224,433.1h-3.1c-0.3,0-0.6-0.3-0.6-0.6c0-0.3,0.3-0.6,0.6-0.6h3.1c0.3,0,0.6,0.3,0.6,0.6
			S224.4,433.1,224,433.1z"/>
		<path class="st2" d="M254.3,433.1h-25.1c-0.3,0-0.6-0.3-0.6-0.6c0-0.3,0.3-0.6,0.6-0.6h25.1c0.3,0,0.6,0.3,0.6,0.6
			S254.6,433.1,254.3,433.1L254.3,433.1z"/>
		<path class="st2" d="M253.7,440.5h-10.3c-0.3,0-0.6-0.3-0.6-0.6s0.3-0.6,0.6-0.6h10.3c0.3,0,0.6,0.3,0.6,0.6
			S254.1,440.5,253.7,440.5z"/>
		<path class="st0" d="M254.8,441v-17.8c0-0.9-0.7-1.7-1.7-1.7h-89.9c-0.7,0-1.2-0.5-1.2-1.2l0,0c0-0.7,0.5-1.2,1.2-1.2h155.9
			c0.9,0,1.7,0.7,1.7,1.7v22.8c0,1.5-1.2,2.7-2.7,2.7l0,0H163.3c-0.7,0-1.2-0.5-1.2-1.2l0,0c0-0.7,0.5-1.2,1.2-1.2h88.9
			C253.6,443.8,254.8,442.5,254.8,441L254.8,441z"/>
		<path class="st2" d="M318.2,446.8H163.3c-1,0.1-1.9-0.7-2-1.7s0.7-1.9,1.7-2c0.1,0,0.2,0,0.3,0h88.9c1.1,0,2.1-0.9,2.1-2.1v-17.8
			c0-0.6-0.5-1.1-1.1-1.1h-89.9c-1,0.1-1.9-0.7-2-1.7s0.7-1.9,1.7-2c0.1,0,0.2,0,0.3,0h155.9c1.2,0,2.3,1,2.3,2.3v22.8
			C321.5,445.3,320,446.8,318.2,446.8z M163.3,444.3c-0.4,0-0.7,0.2-0.7,0.6s0.2,0.7,0.6,0.7c0.1,0,0.1,0,0.2,0h154.9
			c1.1,0,2.1-0.9,2.1-2.1v-22.8c0-0.6-0.5-1.1-1.1-1.1h-156c-0.4,0-0.7,0.2-0.7,0.6s0.2,0.7,0.6,0.7c0.1,0,0.1,0,0.2,0h89.9
			c1.2,0,2.3,1,2.3,2.3V441c0,1.8-1.5,3.3-3.3,3.3L163.3,444.3L163.3,444.3z"/>
		<path class="st6" d="M166.3,361.2c0.9-3,4.2-15.4,0.1-23.3h146.9v23.3H166.3z"/>
		<path class="st2" d="M313.3,361.8h-147c-0.2,0-0.4-0.1-0.5-0.2c-0.1-0.2-0.2-0.3-0.1-0.5c0.7-2.4,4.2-15.1,0.2-22.9
			c-0.1-0.2-0.1-0.4,0-0.6s0.3-0.3,0.5-0.3h146.9c0.3,0,0.6,0.3,0.6,0.6v23.3C313.9,361.5,313.7,361.8,313.3,361.8
			C313.4,361.8,313.3,361.8,313.3,361.8z M167.1,360.6h145.6v-22.1H167.3C170.6,346,168.2,356.5,167.1,360.6z"/>
		<path class="st2" d="M254.3,343.7h-22.4c-0.3,0-0.6-0.3-0.6-0.6c0-0.3,0.3-0.6,0.6-0.6h22.4c0.3,0,0.6,0.3,0.6,0.6
			S254.7,343.7,254.3,343.7z"/>
		<path class="st2" d="M224.4,350.8h-3.1c-0.3,0-0.6-0.3-0.6-0.6c0-0.3,0.3-0.6,0.6-0.6h3.1c0.3,0,0.6,0.3,0.6,0.6
			C225,350.6,224.8,350.8,224.4,350.8z"/>
		<path class="st2" d="M254.7,350.8h-25.2c-0.3,0-0.6-0.3-0.6-0.6c0-0.3,0.3-0.6,0.6-0.6h25.1c0.3,0,0.6,0.3,0.6,0.6
			C255.3,350.6,255,350.8,254.7,350.8z"/>
		<path class="st2" d="M254.1,358.2h-10.4c-0.3,0-0.6-0.3-0.6-0.6c0-0.3,0.3-0.6,0.6-0.6h10.4c0.3,0,0.6,0.3,0.6,0.6
			C254.7,358,254.5,358.2,254.1,358.2z"/>
		<path class="st0" d="M254.8,358.9v-17.8c0-0.9-0.7-1.7-1.7-1.7h-89.9c-0.7,0-1.2-0.5-1.2-1.2l0,0c0-0.7,0.5-1.2,1.2-1.2h155.9
			c0.9,0,1.7,0.7,1.7,1.7v22.8c0,1.5-1.2,2.7-2.7,2.7l0,0H163.3c-0.7,0-1.2-0.5-1.2-1.2l0,0c0-0.7,0.5-1.2,1.2-1.2h88.9
			C253.6,361.6,254.8,360.4,254.8,358.9L254.8,358.9z"/>
		<path class="st2" d="M318.2,364.6H163.3c-1,0.1-1.9-0.7-2-1.7s0.7-1.9,1.7-2c0.1,0,0.2,0,0.3,0h88.9c1.1,0,2.1-0.9,2.1-2.1V341
			c0-0.6-0.5-1.1-1.1-1.1h-89.9c-1,0.1-1.9-0.7-2-1.7s0.7-1.9,1.7-2c0.1,0,0.2,0,0.3,0h155.9c1.2,0,2.3,1,2.3,2.3v22.8
			C321.5,363.2,320,364.6,318.2,364.6z M163.3,362.1c-0.4,0-0.7,0.2-0.7,0.6s0.2,0.7,0.6,0.7c0.1,0,0.1,0,0.2,0h154.9
			c1.1,0,2.1-0.9,2.1-2.1v-22.8c0-0.6-0.5-1.1-1.1-1.1h-156c-0.4,0-0.7,0.2-0.7,0.6s0.2,0.7,0.6,0.7c0.1,0,0.1,0,0.2,0h89.9
			c1.2,0,2.3,1,2.3,2.3v17.8c0,1.8-1.5,3.3-3.3,3.3H163.3z"/>
		<path class="st2" d="M220.2,252.5c0,0-12.5,0.4-30.6-4s-33-1.2-35.8,16.1c-2.8,17.3,43.5,35,75.7,41.5c32.2,6.4,64.4,9.3,80.1,2.4
			c15.7-6.8,15.3-31.4,9.3-42.7s-26.2-12.9-36.6-11.2C271.7,256.3,220.2,252.5,220.2,252.5z"/>
		<path class="st2" d="M283.5,313.1c-18.5,0-40-3.6-54.1-6.4c-32.4-6.5-79.1-24.4-76.2-42.2c1.1-6.7,4-11.6,8.6-14.7
			c6.3-4.2,16-4.8,27.9-1.9c17.8,4.4,30.3,4,30.4,4l0,0c0.5,0,51.6,3.6,61.9,2c9.4-1.4,30.8-0.5,37.3,11.6c3.8,7,5.7,19.7,2,30.2
			c-2.2,6.4-6.2,11-11.5,13.3C303.1,312,293.8,313.1,283.5,313.1z M176.3,247.3c-5.6,0-10.3,1.2-13.8,3.5c-4.3,2.9-7.1,7.5-8.1,13.9
			c-2.6,16.3,42,34.1,75.2,40.8c21.9,4.4,61.3,10.5,79.7,2.4c5-2.2,8.8-6.5,10.9-12.6c3.5-10.1,1.6-22.6-1.9-29.3
			c-6.2-11.5-26.9-12.4-36-11c-10.4,1.6-59.6-1.8-62.1-2c-0.7,0-13.2,0.3-30.7-4C185.1,248,180.7,247.4,176.3,247.3z"/>
		<path class="st2" d="M301.5,176.8c-1.7-11.6-3.5-23.2-5.2-34.8c-1.6-10.8-2.3-22.3-5.1-32.8c-3.6-15.7-9.1-24.2-25.4-27.2
			s-34.4,14.5-34.4,22.3s5.6,25.6-3,53.4c-2.9,9.5,8.5,10.9,22.2,6.7L301.5,176.8z"/>
		<path class="st2" d="M301.5,177.4h-0.1l-50.7-12.3c-10.3,3.1-18.4,3-21.7-0.3c-1.7-1.7-2.1-4.1-1.1-7.2
			c6.7-21.6,4.8-37.2,3.6-46.5c-0.3-2.2-0.5-4.5-0.6-6.7c0-3.8,3.9-9.7,9.8-14.5c3.9-3.2,14.1-10.5,25.4-8.5
			c17,3.1,22.4,12.5,25.8,27.6c1.8,7.5,3,15,3.8,22.6c0.4,3.4,0.8,6.9,1.3,10.2c0.9,6.3,1.9,12.5,2.8,18.8l2.4,16
			c0,0.2,0,0.4-0.2,0.5C301.8,177.4,301.7,177.4,301.5,177.4z M250.7,163.9h0.1l50,12.2l-2.2-15.1c-0.9-6.3-1.9-12.5-2.8-18.8
			c-0.5-3.4-0.9-6.9-1.3-10.3c-0.7-7.6-2-15.1-3.7-22.5c-3.5-15-8.5-23.7-24.9-26.7c-7.4-1.4-16.5,1.7-24.4,8.2
			c-5.5,4.6-9.3,10.1-9.3,13.6c0.1,2.2,0.3,4.4,0.6,6.6c1.2,9.4,3.1,25.2-3.6,47c-0.8,2.6-0.5,4.6,0.8,5.9
			C233,167,240.9,167,250.7,163.9C250.6,163.9,250.6,163.9,250.7,163.9L250.7,163.9z"/>
		<path class="st0" d="M257.8,152.7c0,0-19.9,2.7-29.3,5.1c-9.4,2.4-12.7,5.8-16.1,12.2s-8.4,30.1-13.2,40.1s-13.6,12.6-15.1,23.2
			s6.9,14.2,13.3,15.4c4.7,0.8,9.4,1.3,14.2,1.5c0,0,10.3,24.2,30.2,26s34.7-12.1,43.8-17.2s9.7-16.9,10-30.5s8.3-44.1,6.2-52.6
			c-2.1-8.5-5.3-9.8-19-16.9C276.9,156,266.2,152.1,257.8,152.7z"/>
		<path class="st2" d="M245.3,276.9c-1.2,0-2.4,0-3.6-0.2c-18.7-1.7-29.2-22.9-30.5-26c-4.7-0.2-9.3-0.7-13.9-1.5
			c-5.8-1.1-15.4-4.7-13.8-16.1c0.9-6.3,4.3-9.9,7.9-13.6c3-2.8,5.4-6.1,7.3-9.7c2.6-5.3,5.2-14.7,7.6-22.9c2.1-7.2,4-14.2,5.6-17.2
			c3.3-6.3,6.8-10,16.4-12.5c9.3-2.4,29.2-5.1,29.3-5.1l0,0c8.3-0.6,18.8,3.1,25.3,6.4l1.2,0.6c12.6,6.4,16,8.2,18.1,16.7
			c1.2,4.9-0.8,16.6-2.9,29c-1.5,8.9-3.1,18-3.3,23.8c-0.3,12.5-0.6,25.5-10.3,31c-1.8,1-3.8,2.4-6.2,4
			C271.1,269.2,259.7,276.9,245.3,276.9z M257.8,153.3c-0.7,0.1-20.1,2.8-29.2,5.1c-9.3,2.4-12.5,5.7-15.7,11.9
			c-1.5,2.9-3.5,9.7-5.5,16.9c-2.4,8.3-5.1,17.8-7.7,23.1c-2,3.7-4.5,7.1-7.5,10c-3.6,3.8-6.7,7.1-7.5,13
			c-1.4,9.9,6.2,13.5,12.8,14.7c4.7,0.8,9.4,1.3,14.1,1.5c0.2,0,0.4,0.1,0.5,0.4c0.1,0.2,10.4,23.8,29.7,25.6
			c15.7,1.4,28.1-7,37.2-13.1c2.4-1.6,4.4-3,6.3-4c8.5-4.8,9.3-15.4,9.7-30c0.1-5.9,1.7-15.1,3.3-24c2-11.7,4.1-23.8,3-28.4
			c-2-7.9-5-9.5-17.5-15.9l-1.2-0.6C276.2,156.3,265.9,152.7,257.8,153.3z"/>
		<path class="st6" d="M195.1,216.3c-4.6,5.5-9.9,9-11,17c-0.3,1.6-0.3,3.2,0,4.8c1.2,1.9,5,6.3,12.4,4.2c9.2-2.6,8.2-15.5,2.6-23.4
			C198.2,217.5,196.8,216.5,195.1,216.3z"/>
		<path class="st2" d="M192.8,243.4c-3.7,0-7.1-1.9-9.1-5c0-0.1-0.1-0.1-0.1-0.2c-0.3-1.6-0.3-3.3-0.1-5c0.9-6.3,4.3-9.9,7.9-13.6
			c1.1-1.2,2.2-2.3,3.3-3.6c0.1-0.2,0.3-0.2,0.5-0.2c1.8,0.2,3.5,1.2,4.5,2.8c3.9,5.5,5.4,13,3.6,18.1c-1,3.1-3.5,5.4-6.6,6.2
			C195.4,243.2,194.1,243.4,192.8,243.4z M184.7,237.9c1.2,1.9,4.8,5.7,11.6,3.8c2.7-0.7,4.9-2.8,5.8-5.5c1.7-4.8,0.3-11.8-3.4-17
			c-0.8-1.2-2-2-3.3-2.2c-1,1.2-2.1,2.3-3.1,3.4c-3.6,3.8-6.7,7.1-7.5,13C184.5,234.9,184.5,236.4,184.7,237.9L184.7,237.9z"/>
		<path class="st6" d="M256.3,193.5c8.5-3.9,13-10.5,16.9-23.2c1.4-4.6,2.6-9.2,3.4-13.9c-5.7-2.2-12.9-4.1-18.9-3.6
			c0,0-8.6,1.2-17.2,2.7c-0.7,4.4-2.4,17.1-0.4,26.6C242.6,193.5,247.9,197.3,256.3,193.5z"/>
		<path class="st2" d="M250.6,195.5c-1.3,0-2.6-0.3-3.8-0.9c-3.4-1.7-5.8-5.9-7.2-12.7c-2-9.4-0.4-21.8,0.4-26.7
			c0-0.3,0.2-0.5,0.5-0.5c8.5-1.5,17.1-2.7,17.2-2.7c7.1-0.5,15.1,2.1,19.2,3.6c0.3,0.1,0.4,0.4,0.4,0.7c-0.9,4.7-2,9.4-3.5,14
			c-4,13.1-8.8,19.7-17.2,23.6l0,0C254.7,194.9,252.7,195.4,250.6,195.5z M241.2,155.9c-0.8,5.1-2.3,16.9-0.4,25.9
			c1.3,6.3,3.6,10.3,6.6,11.8c2.4,1.2,5.2,1,8.8-0.7c8-3.6,12.6-10.1,16.5-22.8c1.4-4.4,2.5-8.8,3.3-13.3
			c-4.2-1.6-11.6-3.9-18.1-3.4C257.8,153.3,249.4,154.4,241.2,155.9z M256.4,193.5L256.4,193.5z"/>
		<path class="st2" d="M216.4,238.1c-0.1,0-0.2,0-0.2,0c-0.3-0.1-0.5-0.5-0.3-0.8l0,0c0.1-0.1,6-15,6-19.1c0-2.9-1.3-5.7-2.8-9.1
			c-0.7-1.5-1.3-3-2-4.6c-2.1-5.4,2.7-13.8,3.3-14.9c0.3-2.2,3.5-26.4,6.7-31c0.2-0.3,0.6-0.3,0.8-0.2l0,0c0.3,0.2,0.3,0.6,0.2,0.8
			c-3,4.4-6.5,30.3-6.5,30.6c0,0.1,0,0.2-0.1,0.2c0,0.1-5.3,8.9-3.3,14c0.6,1.6,1.3,3.1,1.9,4.5c1.6,3.5,2.9,6.5,2.9,9.6
			c0,4.3-5.8,18.9-6,19.5C216.9,238,216.7,238.2,216.4,238.1z"/>
		<path class="st6" d="M187.7,207.9l4.5-4.8c3,1.6,6.1,2.9,9.4,3.9c12.2,4.1,17.8,6.6,18.4,13.9c0,0,8.2-5.1,16.3-4.2
			c8.2,0.9,15.4,4.2,17.8,4.5l2.4,0.3l0.6,4.2l-4.5,23.9l-35.3-3.6l-24.2-21.1L187.7,207.9z"/>
		<path class="st2" d="M252.6,250.2L252.6,250.2l-35.4-3.6c-0.1,0-0.2-0.1-0.3-0.1l-24.2-21.1c-0.1-0.1-0.1-0.2-0.2-0.3l-5.4-16.9
			c-0.1-0.2,0-0.4,0.1-0.6l4.5-4.8c0.2-0.2,0.5-0.2,0.7-0.1c2.9,1.6,6,2.9,9.2,3.9c12.1,4,17.7,6.6,18.7,13.5
			c2.3-1.3,9-4.6,15.9-3.8c4.7,0.6,9.4,1.8,13.9,3.4c1.3,0.5,2.6,0.9,3.9,1.1l2.4,0.3c0.3,0,0.5,0.2,0.5,0.5l0.6,4.2
			c0,0.1,0,0.1,0,0.2l-4.5,23.9C253.2,250,252.9,250.2,252.6,250.2z M217.6,245.4l34.6,3.5l4.4-23.2l-0.5-3.6l-2-0.3
			c-1.4-0.3-2.8-0.7-4.2-1.2c-4.4-1.6-9-2.7-13.6-3.3c-7.9-0.9-15.8,4.1-15.9,4.1c-0.2,0.1-0.4,0.1-0.6,0c-0.2-0.1-0.3-0.3-0.3-0.5
			c-0.6-6.9-5.9-9.3-18-13.4c-3.1-1-6.2-2.2-9.1-3.7l-3.9,4.2l5.3,16.4L217.6,245.4z"/>
		<polygon class="st2" points="186.2,207 214.9,231.5 217.9,226.7 259,225.8 256.6,252.3 217.6,250.5 214.9,252.3 193.7,236.6 		"/>
		<path class="st2" d="M256.6,252.9L256.6,252.9l-38.8-1.8l-2.5,1.7c-0.2,0.1-0.5,0.1-0.7,0l-21.1-15.7c-0.1-0.1-0.2-0.2-0.2-0.3
			l-7.6-29.6c-0.1-0.3,0-0.5,0.3-0.7c0.2-0.1,0.5-0.1,0.7,0.1l28.2,24l2.7-4.2c0.1-0.2,0.3-0.3,0.5-0.3l41.1-0.9
			c0.2,0,0.3,0.1,0.5,0.2c0.1,0.1,0.2,0.3,0.2,0.5l-2.4,26.6C257.1,252.7,256.9,252.9,256.6,252.9z M217.6,249.9L217.6,249.9
			l38.4,1.8l2.3-25.4l-40.1,0.9l-2.9,4.6c-0.1,0.1-0.2,0.3-0.4,0.3s-0.3,0-0.5-0.1l-27.2-23.3l7,27.5l20.6,15.3l2.4-1.6
			C217.4,249.9,217.5,249.9,217.6,249.9z"/>
		<path class="st6" d="M286.1,198.9l-0.6,34.4c0,0-17.8,10-27.8,12.7c-5.5,1.6-11.2,2.6-16.9,2.7c-0.9,0-4.8-6.3-6.9-8.5
			c-2.1-2.1-3.8-2.1-7.7-4.1c-5.4-2.7-7.7-3.2-7.4-2s0.6,2.4,3.3,3.9s4.5,2.7,4.5,2.7l0.6,1.2c0,0-6.6-0.9-9.4-1.5
			c-2.7-0.6-9.7-5.4-9.7-5.4s-3-0.2-0.8,3.4c2.1,3.6,4.2,3.8,4.2,3.8c0.4,2.2,1.5,4.2,3,5.7c1.3,1.2,2.8,2.3,4.2,3.3
			c0,0-5.7-1.5-5.1,0c0.6,1.5,4.2,2.1,8.8,4.2c4.5,2.1,14.8,2.4,20.5,3.3c10.4,1.3,20.9,1.5,31.4,0.6c12.1-1.2,30.2-9.4,33.5-12.1
			s1.2-33.2,0.3-40.2s-2.7-19.9-3.9-26c-1.2-6-6-14.5-9.1-16.3S286.7,169,286.1,198.9z"/>
		<path class="st2" d="M261.7,260.8c-6.3,0-12.6-0.4-18.8-1.2c-1.7-0.3-3.9-0.5-6.2-0.7c-5.3-0.5-11.2-1.1-14.5-2.6
			c-1.6-0.8-3.1-1.3-4.5-1.8c-2.5-0.9-4.1-1.5-4.6-2.7c-0.2-0.3-0.1-0.8,0.1-1c0.4-0.5,1.6-0.5,3-0.3c-0.6-0.5-1.3-1.1-2.1-1.7
			c-1.6-1.5-2.7-3.5-3.1-5.7c-0.8-0.3-2.5-1.1-4.2-4c-0.9-1.5-1.1-2.6-0.6-3.5c0.5-0.6,1.2-1,2-0.9c0.1,0,0.2,0,0.3,0.1
			c0.1,0,6.9,4.8,9.4,5.3c2,0.4,6.2,1.1,8.2,1.3l0,0c-0.5-0.3-2.1-1.4-4.3-2.6c-2.9-1.6-3.3-3.1-3.6-4.3c-0.1-0.4,0-0.9,0.3-1.1
			c0.4-0.3,1.2-1,7.9,2.4c1.3,0.7,2.4,1.1,3.3,1.5c1.7,0.6,3.2,1.5,4.5,2.7c1.3,1.4,2.4,2.9,3.5,4.4c0.9,1.4,2,2.7,3.1,3.9
			c5.6-0.2,11.2-1.1,16.6-2.7c9.1-2.4,25-11.1,27.3-12.5l0.6-34.1l0,0c0.4-19.5,3-32,7.2-34.3c0.8-0.5,1.9-0.5,2.7,0
			c3.2,1.9,8.1,10.7,9.3,16.7s3,19.2,3.9,26c0.4,3.1,3.5,37.4-0.5,40.7c-3.5,2.8-21.8,11-33.8,12.2
			C270.1,260.6,265.8,260.8,261.7,260.8z M214.4,251.4c0.5,0.6,1.9,1.2,3.8,1.9c1.4,0.5,2.9,1.1,4.6,1.8c3,1.4,8.9,2,14.1,2.5
			c2.3,0.2,4.5,0.5,6.3,0.7c10.4,1.3,20.8,1.5,31.2,0.6c11.8-1.2,29.8-9.2,33.2-11.9c2.8-2.3,1.2-30.7,0.1-39.6
			c-0.9-6.8-2.7-19.8-3.9-25.9c-1.2-6.1-6-14.3-8.8-15.9c-0.5-0.3-1.1-0.3-1.5,0c-1.4,0.8-6,5.5-6.6,33.3l-0.6,34.4
			c0,0.2-0.1,0.4-0.3,0.5c-0.2,0.1-18,10-27.9,12.7c-5.5,1.6-11.3,2.6-17.1,2.7c-0.7,0-1.4-0.9-4-4.3c-1-1.5-2.2-2.9-3.4-4.3
			c-1.2-1.1-2.6-1.9-4.1-2.4c-1-0.4-2-0.8-3.4-1.5c-4.6-2.3-6-2.5-6.5-2.5c0.3,1.1,0.6,2.1,3,3.4c2.7,1.5,4.6,2.7,4.6,2.7
			c0.1,0.1,0.2,0.1,0.2,0.2l0.6,1.2c0.1,0.2,0.1,0.4,0,0.6s-0.4,0.3-0.6,0.2c-0.3,0-6.7-0.9-9.4-1.5s-8.6-4.7-9.7-5.4
			c-0.3,0-0.6,0.1-0.7,0.3c-0.1,0.2-0.3,0.7,0.6,2.2c1.9,3.2,3.7,3.5,3.7,3.5c0.3,0,0.5,0.2,0.5,0.5c0.4,2,1.4,3.9,2.8,5.4
			c1.3,1.2,2.7,2.3,4.2,3.3c0.3,0.2,0.4,0.6,0.2,0.8c-0.1,0.2-0.4,0.3-0.7,0.3C217.3,251.6,215.8,251.4,214.4,251.4L214.4,251.4z
			 M285.5,233.3L285.5,233.3z"/>
		<path class="st6" d="M211.6,242.4c0,0,7.2,4.3,12.6,5.5"/>
		<path class="st2" d="M224.1,248.4H224c-5.4-1.2-12.5-5.4-12.7-5.5c-0.3-0.2-0.4-0.5-0.2-0.8s0.5-0.4,0.8-0.2l0,0
			c0.1,0,7.2,4.2,12.4,5.4c0.3,0,0.6,0.3,0.5,0.7C224.8,248.2,224.5,248.5,224.1,248.4L224.1,248.4z"/>
		<path class="st6" d="M218.8,251.4c2.3,0.9,4.7,1.4,7.1,1.5"/>
		<path class="st2" d="M225.9,253.5c-2.5-0.1-5-0.6-7.3-1.5c-0.3-0.1-0.5-0.5-0.4-0.8s0.5-0.5,0.8-0.4l0,0c2.2,0.8,4.5,1.3,6.9,1.4
			c0.3,0,0.6,0.3,0.6,0.6S226.3,253.5,225.9,253.5L225.9,253.5z"/>
		<path class="st6" d="M212.5,245.4c3.8,2.7,8,4.6,12.5,5.7"/>
		<path class="st2" d="M225,251.7h-0.1c-4.6-1.1-8.9-3.1-12.7-5.8c-0.3-0.2-0.3-0.6-0.1-0.8c0.2-0.3,0.6-0.3,0.8-0.1
			c3.7,2.6,7.9,4.5,12.3,5.6c0.3,0.1,0.5,0.4,0.5,0.7l0,0C225.6,251.5,225.3,251.7,225,251.7z"/>
		<path class="st0" d="M278,259c11.8-2.2,26.9-9.1,29.9-11.5c3.3-2.7,1.2-33.2,0.3-40.2s-2.7-19.9-3.9-26c-1.2-6-6-14.5-9.1-16.3
			s-8.5,3.9-9.1,33.8l-0.6,34.4c0,0-6.9,3.9-14.6,7.4C273.9,243.9,278.9,250.7,278,259z"/>
		<path class="st2" d="M278,259.6c-0.2,0-0.3-0.1-0.4-0.2s-0.2-0.3-0.2-0.5c0.9-8.1-3.9-14.6-6.8-17.8c-0.1-0.1-0.2-0.3-0.1-0.5
			c0-0.2,0.2-0.4,0.3-0.4c6.6-3.1,12.8-6.5,14.2-7.2l0.6-34.1c0.4-19.5,3-32,7.2-34.3c0.8-0.5,1.9-0.5,2.7,0
			c3.2,1.9,8.1,10.7,9.3,16.7c1.2,6,3,19.2,3.9,26c0.4,3.1,3.5,37.4-0.5,40.7c-3.2,2.6-18.5,9.5-30.2,11.7V259.6z M271.9,240.9
			c3,3.4,7.2,9.7,6.7,17.4c12.1-2.4,26.2-9.1,28.9-11.3c2.8-2.3,1.2-30.7,0.1-39.6c-0.9-6.8-2.7-19.8-3.9-25.9
			c-1.2-6.1-6-14.3-8.8-15.9c-0.5-0.3-1.1-0.3-1.5,0c-1.4,0.8-6,5.5-6.6,33.3l-0.6,34.4c0,0.2-0.1,0.4-0.3,0.5
			C285.8,233.9,279.2,237.5,271.9,240.9L271.9,240.9z"/>
		<path class="st6" d="M247,149.1c0,0-2.7,15.7-3,25.4s7,19.4,17.3,7s8.6-32.9,8.6-32.9C262.8,151.9,254.4,152.1,247,149.1z"/>
		<path class="st2" d="M252.2,188c-0.8,0-1.6-0.1-2.3-0.4c-3.9-1.4-6.6-7-6.4-13.1c0.3-9.7,2.9-25.4,3-25.5c0-0.2,0.1-0.3,0.3-0.4
			c0.2-0.1,0.4-0.1,0.5,0c7.2,2.9,15.3,2.8,22.4-0.5c0.3-0.2,0.7,0,0.8,0.3c0,0.1,0.1,0.1,0.1,0.2c0.1,0.8,1.5,20.9-8.8,33.4
			C257.9,186.6,254.6,188,252.2,188z M247.5,149.9c-0.5,3.2-2.6,16.2-2.8,24.6c-0.2,5.6,2.2,10.6,5.6,11.9c3.1,1.2,6.8-0.7,10.6-5.3
			c8.8-10.6,8.7-27.6,8.5-31.6C262.5,152.5,254.6,152.6,247.5,149.9L247.5,149.9z"/>
		<path class="st2" d="M247.6,169.4L247.6,169.4c-0.4-0.1-0.6-0.4-0.6-0.7l0,0c0.8-4.5,0.3-12.7,0.3-12.8c0-0.3,0.2-0.6,0.5-0.6l0,0
			c0.3,0,0.6,0.2,0.6,0.6c0,0.3,0.5,8.5-0.3,13.1C248.1,169.2,247.9,169.4,247.6,169.4z"/>
		<path class="st6" d="M187,230.1c-0.4,1.4-0.3,2.9,0.5,4.1c1.2,2,7.7,5.8,7.7,4.3s-3.2-3.6-3.4-4.7c-0.2-0.9-0.6-1.8-1.1-2.6
			C190.7,231.2,188.4,228.3,187,230.1z"/>
		<path class="st2" d="M194.7,239.5c-1.9,0-6.7-3.1-7.8-4.9c-0.8-1.4-1-3.1-0.5-4.6c0-0.1,0-0.1,0.1-0.2c0.4-0.5,0.9-0.8,1.6-0.8
			l0,0c1.5,0,2.9,1.7,3,1.9c0.6,0.9,1,1.9,1.2,2.9c0.3,0.6,0.7,1.1,1.2,1.5c1,1.1,2.1,2.2,2.1,3.3c0,0.4-0.3,0.8-0.7,0.9
			C194.9,239.5,194.8,239.5,194.7,239.5z M187.6,230.4c-0.3,1.2-0.2,2.5,0.4,3.5c1,1.6,5.2,4.1,6.5,4.3c-0.4-0.8-1-1.6-1.7-2.2
			s-1.3-1.3-1.6-2.2c-0.2-0.9-0.5-1.7-1-2.4c-0.5-0.7-1.2-1.2-2.1-1.4C187.9,230.1,187.7,230.2,187.6,230.4z"/>
		<path class="st6" d="M183.9,221.1c0,0-0.3,4.5,0.5,6.6s8.8,7.7,10.9,6.6c2-1.1-4.3-6.6-5.8-8.3
			C187.7,224.2,185.9,222.6,183.9,221.1z"/>
		<path class="st2" d="M194.6,235.1c-0.7,0-1.5-0.2-2.1-0.5c-3.1-1.2-8-4.8-8.7-6.6c-0.8-2.2-0.5-6.6-0.5-6.8s0.1-0.4,0.4-0.5
			c0.2-0.1,0.4-0.1,0.6,0.1c2,1.5,3.9,3.2,5.7,5c0.3,0.4,0.8,0.9,1.5,1.5c2.9,2.9,5.1,5.3,4.9,6.8c0,0.4-0.3,0.8-0.7,1
			C195.3,235,195,235.1,194.6,235.1z M184.5,222.3c-0.1,1.7,0.1,3.5,0.5,5.2c0.5,1.3,4.8,4.7,8,5.9c1.4,0.6,1.9,0.4,2.1,0.3
			c0.2-1.1-2.9-4.3-4.5-5.8c-0.7-0.6-1.2-1.2-1.5-1.6C187.6,224.9,186.1,223.6,184.5,222.3L184.5,222.3z"/>
		<path class="st6" d="M183.9,215.7c0,0-0.6,4.4,0,6.6c0.6,2.1,8.3,8.3,10.4,7.4c2.1-0.9-3.8-6.9-5.2-8.7
			C187.5,219,185.8,217.3,183.9,215.7z"/>
		<path class="st2" d="M193.8,230.3c-0.8-0.1-1.6-0.3-2.3-0.7c-3-1.4-7.7-5.3-8.2-7.2c-0.6-2.2,0-6.6,0-6.8s0.2-0.4,0.4-0.5
			s0.4,0,0.6,0.1c1.9,1.6,3.7,3.4,5.3,5.3c0.3,0.4,0.8,1,1.4,1.6c2.7,3.1,4.7,5.6,4.4,7.1c-0.1,0.4-0.4,0.8-0.8,0.9
			C194.4,230.3,194.1,230.3,193.8,230.3z M184.4,216.9c-0.2,1.7-0.2,3.5,0.1,5.2c0.4,1.3,4.5,5,7.6,6.5c1.4,0.7,1.9,0.5,2,0.5
			c0.3-1.1-2.6-4.5-4-6.1c-0.6-0.7-1.1-1.3-1.4-1.7C187.3,219.7,185.9,218.3,184.4,216.9z"/>
		<path class="st6" d="M187.6,210.6c0,0-4.6-2.4-5.4,0.6c-0.8,3,2.8,6.3,6,8.9c3.2,2.6,4.6,2.1,4.6-0.3S187.6,210.6,187.6,210.6z"/>
		<path class="st2" d="M191.6,222.5c-1.4-0.2-2.7-0.9-3.7-1.9c-3.7-3-7-6.2-6.2-9.5c0.1-0.8,0.7-1.4,1.4-1.8
			c1.8-0.8,4.5,0.6,4.8,0.7c0.1,0,0.1,0.1,0.2,0.2c0.6,0.7,5.3,7,5.3,9.6c0,1.3-0.4,2.1-1.1,2.5
			C192.1,222.4,191.8,222.5,191.6,222.5z M184.3,210.3c-0.3,0-0.6,0-0.8,0.1c-0.4,0.2-0.6,0.5-0.7,0.9c-0.7,2.6,2.5,5.7,5.8,8.3
			c2.2,1.8,3,1.7,3.2,1.6c0.2-0.1,0.4-0.6,0.4-1.4c0-1.8-3.5-6.8-5-8.7C186.3,210.7,185.4,210.4,184.3,210.3L184.3,210.3z"/>
		<path class="st6" d="M187.2,306.5c0,0-6,3.2-17.3,3.6s-20.5-5.6-15.3-10.5c5.6-5.1,13.1-7.4,20.5-6.4c7.2,1.2,18.1,4,18.1,4
			L187.2,306.5z"/>
		<path class="st2" d="M168.8,310.7c-7.5,0-14.5-2.8-16-6.6c-0.7-1.8-0.1-3.8,1.4-4.9c5.7-5.2,13.4-7.6,21.1-6.6
			c7.2,1.2,18.1,4,18.1,4c0.2,0,0.3,0.2,0.4,0.4c0.1,0.2,0,0.4-0.1,0.6l-6,9.3c-0.1,0.1-0.1,0.2-0.2,0.2c-0.3,0.1-6.3,3.3-17.6,3.7
			L168.8,310.7z M171.7,293.5c-6.2,0.1-12.1,2.4-16.7,6.6c-1.2,0.8-1.6,2.3-1.1,3.6c1.2,3,7.7,6.1,15.9,5.8c10.1-0.4,16-3,16.9-3.5
			l5.5-8.5c-2.7-0.7-11.2-2.8-17.2-3.8C173.9,293.6,172.8,293.5,171.7,293.5z M187.2,306.5L187.2,306.5z"/>
		<path class="st6" d="M188.8,296.4c0.5,0.1,1.1,0.1,1.7,0.1c-3.7-0.9-10.4-2.5-15.4-3.3c-7.5-1-15,1.4-20.5,6.4
			c-2.7,2.4-1.6,5.2,1.6,7.3c-0.4-3.5,1.6-6.8,4.8-8.1C167.9,295.7,182,295.7,188.8,296.4z"/>
		<path class="st2" d="M156.2,307.5c-0.1,0-0.2,0-0.3-0.1c-2.1-1.4-3.3-2.9-3.4-4.6c-0.1-1.4,0.6-2.8,1.7-3.7
			c5.7-5.2,13.4-7.6,21.1-6.6c5,0.8,11.8,2.4,15.4,3.3c0.3,0.1,0.5,0.4,0.5,0.7c-0.1,0.3-0.3,0.5-0.6,0.5c-0.6,0-1.2-0.1-1.8-0.1
			l0,0c-7.2-0.8-21-0.7-27.5,2.4c-3,1.2-4.9,4.3-4.5,7.5c0,0.2-0.1,0.5-0.3,0.6C156.4,307.5,156.3,307.6,156.2,307.5z M171.7,293.5
			c-6.2,0.1-12.1,2.4-16.7,6.6c-0.8,0.6-1.3,1.7-1.3,2.7c0.2,1.2,0.9,2.3,1.9,2.9c0.1-3.3,2.1-6.2,5.2-7.5
			c5.6-2.6,15.4-3.1,22.4-2.9c-2.8-0.6-5.7-1.2-8.1-1.6C173.9,293.6,172.8,293.5,171.7,293.5z"/>
		<path class="st2" d="M313.2,273c0,0-12.1,18.1-24.2,25.4c-12.1,7.2-67.2,8.1-78.5,8.1h-23.4V298c0,0,37-5.3,57.6-16.9
			s31.4-24.6,47.5-29.8c16.1-5.2,30.2,3.6,29.8,25.4"/>
		<path class="st2" d="M210.6,307.1h-23.4c-0.3,0-0.6-0.3-0.6-0.6V298c0-0.3,0.2-0.6,0.5-0.6c0.4,0,37.2-5.4,57.4-16.8
			c7.6-4.4,14.9-9.3,21.8-14.7c8.8-6.5,16.4-12.1,25.8-15.2c8.1-2.6,15.6-1.8,21.3,2.4c6.2,4.6,9.5,13,9.3,23.6
			c0,0.3-0.2,0.6-0.6,0.6l0,0c-0.3,0-0.6-0.3-0.6-0.6l0,0c0.2-10.2-2.9-18.2-8.8-22.6c-5.3-3.9-12.5-4.7-20.2-2.2
			c-9.2,3-16.8,8.6-25.5,15c-7,5.4-14.3,10.3-21.9,14.7c-19.1,10.9-52.7,16.2-57.3,16.9v7.3h22.8c0.6,0,65.1-0.1,78.2-8
			c11.8-7.1,23.8-25,24-25.2c0.2-0.3,0.6-0.4,0.8-0.2c0.3,0.2,0.4,0.5,0.2,0.8l0,0c-0.1,0.2-12.3,18.3-24.3,25.5
			C276,307,211.2,307.1,210.6,307.1z"/>
		<path class="st6" d="M269.9,304.9c-0.3,0-0.6-0.2-0.7-0.5c0-0.3,0.2-0.6,0.5-0.7c13.1-2.2,25.2-8.2,34.9-17.3
			c0.2-0.2,0.6-0.2,0.9,0l0,0c0.2,0.2,0.2,0.6,0,0.8l0,0c-9.9,9.2-22.2,15.3-35.5,17.6L269.9,304.9z"/>
		<path class="st6" d="M309.6,282.7c-0.1,0-0.3,0-0.4-0.1c-0.3-0.2-0.3-0.6-0.1-0.8c1.3-1.5,2.4-3.1,3.3-4.8
			c0.2-0.3,0.5-0.4,0.8-0.3s0.4,0.5,0.3,0.8l0,0c-1,1.8-2.1,3.5-3.5,5.1C310,282.6,309.8,282.7,309.6,282.7z"/>
		<path class="st6" d="M232.7,286.7c-0.3,0-0.6-0.3-0.6-0.6s0.3-0.6,0.6-0.6c6.9-0.5,13.5-2.9,19-7.1c0.2-0.2,0.6-0.2,0.8,0l0,0
			c0.2,0.3,0.2,0.6-0.1,0.9C246.8,283.8,239.9,286.3,232.7,286.7z"/>
		<path class="st2" d="M180.1,255.9l-1.3-0.1"/>
		<path class="st2" d="M180.1,256.5L180.1,256.5l-1.4-0.1c-0.3,0-0.6-0.3-0.6-0.7c0-0.3,0.3-0.6,0.7-0.6l1.4,0.1
			c0.3,0,0.6,0.3,0.6,0.6C180.7,256.3,180.4,256.5,180.1,256.5L180.1,256.5z"/>
		<path class="st6" d="M293.5,308.1c6-2.1,12.2-3.7,18.5-4.8c8.5-1.2,15.3,0,17.7,5.2s0.8,11.7-7.6,13.3c-8.5,1.6-23.8-1.6-25.4-1.6
			c-1.4-0.2-2.8-0.6-4-1.2L293.5,308.1z"/>
		<path class="st2" d="M316.4,322.8c-5.6-0.2-11.2-0.7-16.8-1.7c-1.4-0.2-2.5-0.4-2.9-0.4c-1.5-0.1-3-0.6-4.3-1.2
			c-0.2-0.1-0.3-0.3-0.3-0.6l0.8-10.9c0-0.2,0.2-0.4,0.4-0.5c6.1-2.1,12.3-3.7,18.6-4.8c9.7-1.4,16,0.5,18.3,5.6
			c1.4,2.8,1.4,6,0.1,8.8c-1,1.9-3.2,4.4-8.2,5.4C320.3,322.7,318.3,322.9,316.4,322.8z M293.3,318.6c1.1,0.5,2.2,0.8,3.4,1
			c1,0.1,2,0.2,3,0.4c5.1,0.8,15.8,2.4,22.2,1.2c3.6-0.7,6.1-2.3,7.3-4.7c1.1-2.5,1.1-5.3-0.1-7.7c-2.6-5.7-10.7-5.8-17.1-4.9
			c-6.1,1-12.2,2.6-18,4.7L293.3,318.6z"/>
		<path class="st6" d="M320,302.9c2.6,1,7.4,3.7,6.5,10c-1.2,8.5-11.3,8.5-18.1,8.5c-0.5,0-1,0.1-1.5,0.2c5.1,0.6,11,1,15.2,0.2
			c8.5-1.6,10.1-8.1,7.6-13.3C328.1,305,324.6,303.3,320,302.9z"/>
		<path class="st2" d="M316.3,322.8c-3.2,0-6.4-0.3-9.5-0.7c-0.3,0-0.5-0.3-0.5-0.6c0-0.3,0.2-0.5,0.4-0.6c0.5-0.1,1.1-0.2,1.7-0.2
			c6.9,0,16.4,0,17.5-7.9c0.8-5.7-3.5-8.3-6.1-9.3c-0.3-0.1-0.4-0.4-0.4-0.7c0.1-0.3,0.3-0.5,0.6-0.5c5.2,0.5,8.7,2.4,10.3,5.9
			c1.4,2.8,1.4,6,0.1,8.8c-1,1.9-3.2,4.4-8.2,5.4C320.3,322.7,318.3,322.9,316.3,322.8z M316.2,321.6c1.9,0,3.8-0.1,5.7-0.4
			c3.6-0.7,6.1-2.3,7.3-4.7c1.1-2.5,1.1-5.3-0.1-7.7c-1.1-2.3-3.2-4-5.7-4.6c2.8,2,4.2,5.4,3.6,8.8
			C326.3,318.9,321.4,320.9,316.2,321.6z"/>
		<path class="st2" d="M175.5,246.9c0,0-13.7-2.4-22.5,4.4c-8.9,6.8-7.6,14.1,0.8,24.6c8.5,10.5,30.2,29,77.3,37.4
			c47.1,8.5,61.6,5.6,61.6,5.6l0.8-10.9c-20.2,0.1-40-6.3-56.4-18.1c-26.4-19.3-38.1-32-57.1-34.1"/>
		<path class="st2" d="M284.5,320c-8.7,0-25.2-1-53.5-6.1c-49.9-8.9-70.9-29.3-77.7-37.7c-5.4-6.6-7.5-11.5-7-16
			c0.4-3.4,2.4-6.5,6.3-9.4c9-6.9,22.5-4.6,23-4.5c0.3,0,0.5,0.3,0.5,0.6l0,0c-0.1,0.3-0.4,0.6-0.7,0.5l0,0
			c-0.1,0-13.5-2.3-22.1,4.3c-3.6,2.7-5.5,5.6-5.8,8.6c-0.5,4,1.7,8.8,6.7,15.1c6.6,8.2,27.5,28.3,76.9,37.2c42,7.5,58.1,6,60.9,5.7
			l0.7-9.7c-20.1-0.2-39.7-6.5-56.1-18.2c-6-4.4-11.3-8.5-15.9-12.1c-15.9-12.2-26.4-20.4-40.8-21.9c-0.3,0-0.6-0.3-0.5-0.7
			c0-0.3,0.3-0.6,0.7-0.5c14.8,1.6,25.4,9.8,41.4,22.2c4.7,3.6,9.9,7.7,15.9,12.1c16.3,11.7,35.9,18,56,18c0.2,0,0.3,0.1,0.5,0.2
			c0.1,0.1,0.2,0.3,0.2,0.5l-0.8,10.9c0,0.3-0.2,0.5-0.5,0.5C290.1,319.9,287.3,320.1,284.5,320z"/>
		<path class="st6" d="M170.5,257.2c-0.3,0-0.5-0.2-0.6-0.5s0.1-0.6,0.5-0.7l0,0c1.5-0.3,2.9-0.5,4.4-0.5c0.3,0,0.6,0.2,0.6,0.6
			c0,0.3-0.2,0.6-0.6,0.6l0,0C173.4,256.8,172,256.9,170.5,257.2L170.5,257.2z"/>
		<path class="st6" d="M287.7,308.5L287.7,308.5c-0.3,0-28.3-0.9-59.5-24.9c-21.7-16.7-34.9-24.3-45.6-26.4
			c-0.3-0.1-0.6-0.4-0.5-0.7c0.1-0.3,0.4-0.6,0.7-0.5c10.9,2.1,24.2,9.8,46.1,26.6c30.9,23.8,58.6,24.6,58.8,24.6
			c0.3,0,0.6,0.3,0.6,0.6l0,0C288.3,308.2,288,308.5,287.7,308.5z"/>
		<path class="st6" d="M287.4,132.3c-7.4,3.9-8.5-3.9-8.4-8.7c0.1,0,0.1-0.1,0.2-0.2c0.5-2.2,0-13-6.2-17.4
			c-5.5-3.8-12.8-7.1-19.6-7.1c-4.8,0-9.1,3.1-11.6,6.9c-3.1,4.6-2.8,10-3,15.3s-0.8,11.2,0.3,16.6c1.4,7.1,8.1,22.1,16.2,22.1
			c7.3,0,20.4-11,24.8-17.4c1-0.3,1.9-0.9,2.7-1.6C284.3,139.4,287.6,137.1,287.4,132.3z"/>
		<path class="st2" d="M255.1,160.5c-8.7,0-15.4-15.9-16.8-22.6c-0.9-4.7-0.7-9.7-0.4-14.6l0.1-2.1l0.1-2.1
			c0.2-4.6,0.3-9.4,3.1-13.5c3-4.5,7.5-7.2,12.1-7.2l0,0c6,0,13.3,2.7,20,7.2c6.6,4.6,7.1,15.7,6.5,18c0,0.1-0.1,0.2-0.1,0.3
			c0,2.7,0.4,7.1,2.6,8.5c1.2,0.7,2.8,0.5,4.8-0.6c0.2-0.1,0.4-0.1,0.6,0s0.3,0.3,0.3,0.5c0.2,4.7-2.8,7.2-4.6,8.7l-0.4,0.3
			c-0.8,0.7-1.7,1.3-2.8,1.6C275.9,149.1,263,160.5,255.1,160.5z M253.2,99.5c-4.2,0-8.3,2.5-11.1,6.7c-2.6,3.9-2.7,8.3-2.9,12.9
			l-0.1,2.1l-0.1,2.1c-0.3,4.8-0.5,9.7,0.4,14.3c1.5,7.5,8.2,21.6,15.6,21.6c6.9,0,19.6-10.4,24.3-17.2c0.1-0.1,0.2-0.2,0.3-0.2
			c0.9-0.3,1.8-0.8,2.5-1.5l0.4-0.3c1.6-1.3,3.9-3.3,4.1-6.8c-1.6,0.9-3.5,0.9-5.2,0.1c-2.7-1.6-3.2-6.2-3.2-9.7
			c0-0.2,0.1-0.3,0.2-0.4c0.5-2-0.2-12.5-6-16.6C266.1,102.1,259.1,99.5,253.2,99.5L253.2,99.5z"/>
		<path class="st2" d="M253.2,140.1c-0.5,0-0.9-0.1-1.3-0.3c-0.3-0.2-0.5-0.4-0.5-0.7c-0.2-1.2,2.3-9.3,3.1-11.7
			c0.1-0.3,0.4-0.5,0.8-0.4c0.3,0.1,0.5,0.4,0.4,0.7l0,0c-1.6,4.8-3.2,10.4-3.1,11.1c1.2,0.1,2.4-0.1,3.5-0.5
			c0.3-0.1,0.6,0.1,0.7,0.4l0,0c0.1,0.3-0.1,0.7-0.4,0.7C255.4,139.9,254.3,140,253.2,140.1z"/>
		<path class="st2" d="M255.8,144.9c-1.5,0-2.9-0.4-4.2-1.2c-0.3-0.2-0.3-0.6-0.1-0.8c0.2-0.3,0.6-0.3,0.8-0.1l0,0
			c0.2,0.1,4.2,2.9,10.7-1.9c0.3-0.2,0.6-0.1,0.8,0.1l0,0c0.2,0.3,0.1,0.6-0.1,0.8C261.5,143.7,258.7,144.8,255.8,144.9z"/>
		<path class="st2" d="M268.4,134.7c-2.5,0.1-4.9-1.2-6.2-3.4c-0.1-0.3,0-0.6,0.3-0.8l0,0c0.3-0.1,0.6,0,0.8,0.3l0,0
			c0.1,0.2,2.3,4.4,9.2,1.8c0.3-0.1,0.7,0,0.8,0.4c0.1,0.3,0,0.7-0.3,0.8l0,0C271.4,134.4,269.9,134.7,268.4,134.7z"/>
		<path class="st2" d="M246.9,129.3c-5.2,0-6.4-3.9-6.4-3.9c-0.1-0.3,0.1-0.7,0.4-0.7c0.3-0.1,0.6,0.1,0.7,0.4
			c0,0.2,1.4,4.4,8.3,2.7c0.3-0.1,0.7,0.1,0.7,0.5c0.1,0.3-0.1,0.7-0.5,0.7C249.1,129.2,248,129.3,246.9,129.3z"/>
		<path class="st2" d="M254.5,122c-0.3,0-0.5-0.2-0.6-0.4c0,0-1.2-4-4.3-5.3c-1.8-0.7-4-0.4-6.4,0.9c-0.3,0.2-0.7,0-0.8-0.2
			c-0.2-0.3-0.1-0.7,0.2-0.8c2.8-1.6,5.3-1.9,7.5-1c3.6,1.5,4.9,5.9,5,6.1c0.1,0.3-0.1,0.6-0.4,0.7H254.5z"/>
		<path class="st2" d="M266.7,141.9c-5.6,0-10.1-4.5-10.1-10.1c0-5.6,4.5-10.1,10.1-10.1s10.1,4.5,10.1,10.1l0,0
			C276.8,137.4,272.3,141.9,266.7,141.9z M266.7,122.9c-4.9,0-8.9,4-8.9,8.9c0,4.9,4,8.9,8.9,8.9s8.9-4,8.9-8.9l0,0
			C275.6,126.9,271.6,123,266.7,122.9L266.7,122.9z"/>
		<path class="st2" d="M244.9,137.7c-5.6,0-10.1-4.5-10.1-10.1c0-5.6,4.5-10.1,10.1-10.1S255,122,255,127.6l0,0
			C255,133.1,250.4,137.7,244.9,137.7z M244.9,118.7c-4.9,0-8.9,4-8.9,8.9c0,4.9,4,8.9,8.9,8.9s8.9-4,8.9-8.9l0,0
			C253.8,122.6,249.8,118.7,244.9,118.7z"/>
		<path class="st2" d="M275.7,134.3c-0.3,0-0.5-0.2-0.6-0.5s0.2-0.6,0.5-0.7l7.9-1.4c0.3-0.1,0.6,0.2,0.7,0.5s-0.2,0.6-0.5,0.7
			l-7.9,1.4H275.7z"/>
		<path class="st2" d="M235.6,125.8c-0.2,0-0.4-0.1-0.5-0.2c-0.2-0.3-0.1-0.6,0.1-0.8l2.9-2.1c0.3-0.2,0.6-0.1,0.8,0.1
			c0.2,0.3,0.1,0.6-0.1,0.8l-2.9,2.1C235.9,125.7,235.7,125.8,235.6,125.8z"/>
		<path class="st2" d="M245,102.5c0,0,8.5-5.1,11.4-0.3c2.9,4.9,16.5,37.3,31,30c14.5-7.3-0.1-31.1-14.2-38.7
			C259.1,86,247.2,92.5,245,102.5z"/>
		<path class="st2" d="M283.1,134c-11.2,0-20.9-19.1-25.4-27.9c-0.8-1.6-1.4-2.8-1.8-3.5c-0.5-0.9-1.3-1.5-2.3-1.7
			c-3.4-0.8-8.2,2.1-8.3,2.1c-0.3,0.2-0.7,0.1-0.8-0.2c-0.1-0.1-0.1-0.3-0.1-0.4c1.1-4.9,4.4-9,9-11.1c5.9-2.7,13-2.1,20.1,1.7
			c9.8,5.3,20.7,19.1,20.5,29.7c0.1,4.3-2.4,8.3-6.3,10.1C286.2,133.6,284.7,134,283.1,134z M252.3,99.6c0.5,0,1.1,0.1,1.6,0.2
			c1.3,0.3,2.4,1.1,3,2.2c0.4,0.7,1.1,2,1.9,3.6c4.9,9.7,16.4,32.2,28.4,26.2c3.5-1.6,5.8-5.2,5.7-9c0.2-10.1-10.4-23.5-19.9-28.6
			c-6.8-3.6-13.5-4.2-19-1.7c-3.8,1.7-6.7,5-8,8.9C247.9,100.3,250,99.7,252.3,99.6z"/>
		<path class="st6" d="M243,101.5L243,101.5c-0.3,0-0.6-0.3-0.6-0.6c0.2-2,1.3-3.7,3-4.6c3.1-2.1,8,2,8.2,2.2
			c0.3,0.2,0.3,0.6,0.1,0.9c-0.2,0.3-0.6,0.3-0.9,0.1c-1.2-1-4.8-3.4-6.8-2.1c-1.4,0.7-2.3,2.1-2.5,3.6
			C243.6,101.2,243.4,101.5,243,101.5L243,101.5z"/>
		<path class="st6" d="M291.4,126h-0.2c-1.3-0.4-2.5-0.9-3.6-1.6c-0.3-0.2-0.4-0.5-0.2-0.8c0.2-0.3,0.5-0.4,0.8-0.2c0,0,0,0,0.1,0
			c1,0.7,2.2,1.2,3.3,1.5c0.3,0,0.6,0.3,0.5,0.7S291.8,126,291.4,126L291.4,126z"/>
		<path class="st6" d="M282.9,119.5c-0.2,0-0.4-0.1-0.5-0.2c-2.5-3.7-4.8-7.6-6.7-11.7c-2.2-4.6-4.7-9-7.4-13.3
			c-3.1-4.8-6.4-7.4-9.8-7.7c-2.5-0.1-5,0.9-6.7,2.7c-0.2,0.2-0.6,0.2-0.8,0l0,0c-0.2-0.2-0.2-0.6,0-0.8l0,0c2-2.1,4.8-3.2,7.7-3.1
			c3.8,0.3,7.4,3.1,10.7,8.2c2.7,4.3,5.2,8.7,7.4,13.3c1.9,4,4.1,7.8,6.6,11.5c0.2,0.3,0.1,0.6-0.1,0.8
			C283.2,119.4,283,119.5,282.9,119.5z"/>
		<path class="st6" d="M277.2,122.6c-0.2,0-0.3-0.1-0.4-0.2c-3.1-3-7.8-3.7-11.7-1.8c-0.3,0.2-0.7,0-0.8-0.3c-0.2-0.3,0-0.7,0.2-0.8
			l0,0c4.3-2.1,9.5-1.3,13.1,2c0.2,0.2,0.2,0.6,0,0.9C277.6,122.5,277.4,122.6,277.2,122.6z"/>
		<path class="st2" d="M276.6,224.4c-15.1,0-24.5-11.5-24.6-11.6c-0.2-0.3-0.1-0.7,0.2-0.8c0.2-0.1,0.5-0.1,0.7,0.1
			c0.1,0.1,9.1,11.2,23.7,11.2c0.3,0,0.6,0.3,0.6,0.6S277,224.4,276.6,224.4z"/>
	</g>
	<g id="freepik--Floor--inject-11">
		<path class="st2" d="M452.1,446.8H35.3c-0.3,0-0.6-0.3-0.6-0.6c0-0.3,0.3-0.6,0.6-0.6h416.8c0.3,0,0.6,0.3,0.6,0.6
			C452.7,446.5,452.5,446.8,452.1,446.8z"/>
	</g>
</g>
</svg>
