<svg width="100" height="48" viewBox="0 0 100 48" fill="none" xmlns="http://www.w3.org/2000/svg">
<g id="Layer 3">
<g id="Layer 1">
<path id="Vector" d="M10.9185 24.2102L11.9386 24.4559L10.9208 24.3012C9.92015 24.5436 6.81789 25.4135 6.19219 25.5649L5.01602 25.4837L10.9185 24.2102Z" fill="#1D1D1D"/>
<path id="Vector_2" d="M88.167 24.2102L87.1481 24.457L88.1659 24.3023C89.1654 24.5447 92.2688 25.4146 92.8945 25.566L94.0707 25.4848L88.167 24.2102Z" fill="#1D1D1D"/>
<path id="Vector_3" d="M94.5222 25.7294L73.7546 27.3934C70.9703 26.6004 59.8309 21.2595 52.1789 29.1189C52.1789 29.1189 51.8279 29.4172 50.3805 31.4224H48.5569C47.1084 29.4194 46.7608 29.1189 46.7608 29.1189C41.9273 24.1532 34.9227 23.8537 27.354 26.6728C26.6322 26.9411 25.9104 27.1806 25.1885 27.3912L4.41296 25.7294L1.61386 29.0377L46.7608 30.1225L47.4708 32.0125H51.4689L52.1789 30.1215L97.319 29.0377L94.5222 25.7294ZM29.8362 27.7653C35.5837 25.9707 41.0703 26.1528 45.4911 29.0191L29.8362 27.7653ZM53.4417 29.0212C58.1361 26.0091 63.7685 26.0684 69.1057 27.7653L53.4417 29.0212Z" fill="#1D1D1D"/>
<path id="Vector_4" d="M49.4333 28.6746C44.242 21.7773 36.1524 20.8975 27.8075 23.5082C17.5502 26.7177 9.99059 23.7703 5.24146 16.5296C10.9707 23.4457 19.3133 24.3714 28.2007 21.5908C37.1041 18.8035 44.7834 20.7275 49.4333 28.6746Z" fill="#1D1D1D"/>
<path id="Vector_5" d="M49.4333 30.5799C44.6898 24.2025 37.3809 22.9893 29.5068 25.3586C22.1682 27.5678 14.0399 27.5141 9.28506 21.7805C14.604 26.0771 21.1562 26.1978 27.7414 23.9919C36.8738 20.9359 45.0272 22.3158 49.4333 30.5799Z" fill="#1D1D1D"/>
<path id="Vector_6" d="M24.6505 21.1279C22.0748 20.9732 19.7042 20.3842 17.2732 18.775C16.627 18.345 16.8515 18.3505 16.1734 18.5084C12.7896 19.2203 9.41041 19.1424 6.47454 17.2953C6.04712 17.0318 5.64578 16.7311 5.27557 16.3969C6.29219 17.9435 10.0338 20.8942 16.5689 19.1633C18.6032 20.5498 21.5915 21.4679 24.6505 21.1279Z" fill="#1D1D1D"/>
<path id="Vector_7" d="M49.4677 27.7773C45.7272 21.2836 38.7545 18.5633 31.2484 19.9805C22.0169 21.7202 15.7998 18.4053 12.4776 11.6571C16.6819 18.2232 23.8005 19.8686 31.7955 18.3603C39.7905 16.8521 46.3107 20.4258 49.4677 27.7773Z" fill="#1D1D1D"/>
<path id="Vector_8" d="M34.558 14.8426C32.2171 15.017 28.3204 15.1223 26.2781 13.9124C26.2295 13.8781 26.1728 13.8561 26.1131 13.8482C26.0534 13.8403 25.9926 13.8469 25.9362 13.8674C24.8369 14.2818 23.6838 14.5493 22.5091 14.6627C18.9384 15.0148 15.0281 13.637 12.4797 11.6571C13.4154 12.5489 15.1569 13.6952 17.1149 14.4246C19.9094 15.4744 22.9274 15.5939 26.0182 14.5749C26.6177 14.9237 27.8657 15.3811 29.5046 15.5863C31.2871 15.8133 32.9009 15.7661 34.6241 15.6257C43.989 14.9676 48.7724 21.7498 49.2545 26.2318C49.2271 21.5304 44.4028 14.2151 34.558 14.8426Z" fill="#1D1D1D"/>
<path id="Vector_9" d="M49.4335 28.6746C54.6249 21.7773 62.7555 20.8975 71.0992 23.5082C81.3565 26.7177 88.9162 23.7703 93.6653 16.5296C87.936 23.4457 79.5934 24.3714 70.7072 21.5908C61.805 18.8035 54.0824 20.7275 49.4335 28.6746Z" fill="#1D1D1D"/>
<path id="Vector_10" d="M49.4335 30.5799C54.1758 24.2025 61.5257 22.9893 69.3999 25.3586C76.735 27.5678 84.8668 27.5141 89.6216 21.7805C84.3038 26.0771 77.7505 26.1978 71.1653 23.9919C62.0329 20.9359 53.8385 22.3158 49.4335 30.5799Z" fill="#1D1D1D"/>
<path id="Vector_11" d="M86.1228 18.9286C85.1289 18.902 84.1396 18.7875 83.1675 18.5863C81.6346 18.2638 82.853 18.2858 80.3684 19.5516C77.9853 20.7582 76.2871 21.0105 74.328 21.1279C77.8861 21.5227 80.9383 20.156 82.4142 19.1622C88.1708 20.6902 92.2498 18.6137 93.7063 16.3969C92.1632 17.8525 89.331 19.002 86.1228 18.9286Z" fill="#1D1D1D"/>
<path id="Vector_12" d="M74.655 14.3786C72.8167 13.9223 72.9455 13.7205 72.6286 13.9124C70.021 15.458 64.1607 14.8229 63.886 14.813C54.6316 14.3303 49.6808 21.4383 49.6557 26.2318C50.1184 21.9254 54.4424 15.979 62.0488 15.5863C62.9472 15.5445 63.8477 15.5701 64.7419 15.6631C67.0111 15.8583 70.0484 15.7552 72.1602 14.9183C72.4118 14.8212 72.6555 14.7064 72.8896 14.575C74.5922 15.1593 76.4056 15.3837 78.2063 15.2331C81.4784 14.9413 84.6399 13.3596 86.4293 11.655C83.5071 13.9267 79.0144 15.3702 74.655 14.3786Z" fill="#1D1D1D"/>
<path id="Vector_13" d="M49.4677 27.7773C53.207 21.2836 60.1524 18.5633 67.6596 19.9805C76.8912 21.7202 83.1082 18.4053 86.4293 11.6571C82.2261 18.2232 75.1075 19.8686 67.1125 18.3603C59.1004 16.8488 52.6235 20.4258 49.4677 27.7773Z" fill="#1D1D1D"/>
<path id="Vector_14" d="M46.5991 6.24824C48.3189 5.41459 50.4251 4.71257 52.105 5.56048C52.8367 5.93124 53.2641 6.46543 53.3872 7.16307C53.5718 8.20732 53.1106 9.13531 52.0036 9.94703C53.2193 10.2044 53.9187 10.852 54.1018 11.8897C54.3913 13.535 52.4572 15.187 50.7533 15.4656C50.6363 15.4839 49.7869 15.5548 48.205 15.6784C47.83 12.2111 47.4448 9.67719 46.5991 6.24824ZM48.8785 7.24533C49.1179 8.37076 49.2881 9.22124 49.3891 9.79675C50.147 9.60698 51.5978 8.59015 51.4406 7.68629C51.3357 7.10603 50.4183 6.47859 48.8774 7.23546L48.8785 7.24533ZM50.7727 13.6919C51.7244 13.5361 52.9963 12.0717 51.3426 11.4432C50.8791 11.267 50.3092 11.2048 49.633 11.2567C49.8093 12.3734 49.9369 13.2118 50.0159 13.772C50.2697 13.7619 50.5223 13.7333 50.7716 13.6864L50.7727 13.6919Z" fill="#F59115"/>
<path id="Vector_15" d="M40.9371 11.0637L40.9006 9.04208L38.6896 8.81392L37.7186 11.4037L35.6785 10.9397L39.9023 1.02037L42.5965 1.64122L43.0524 11.5441L40.9371 11.0637ZM40.8414 3.05624L39.2321 7.33858L40.8938 7.51737L40.8414 3.05624Z" fill="#F59115"/>
<path id="Vector_16" d="M58.1873 3.7144C58.1775 4.80035 58.2914 5.7287 58.5293 6.49946C59.0239 8.11485 59.7077 8.79859 60.5807 8.55069C61.1084 8.40041 61.3181 7.7302 61.342 7.3024C61.3557 7.05889 61.3614 6.72762 61.358 6.31518L63.2168 5.93784C63.4653 9.00919 62.4031 9.95364 61.1198 10.3178C56.5496 11.6111 55.2344 3.8219 56.9553 1.1948C57.7702 -0.0501946 59.4273 -0.318938 60.3026 0.373213C61.0013 0.916184 61.4355 1.41308 62.2401 3.80545L60.3448 4.16414C59.9824 2.97947 59.6405 2.26831 59.3191 2.03065C58.9703 1.73667 58.2067 1.7268 58.1873 3.7144Z" fill="#F59115"/>
<path id="Vector_17" d="M2.40249 43.2877V47.7642H0V34.1098H3.76101C5.10434 34.1098 6.11221 34.481 6.78463 35.2232C7.45706 35.9654 7.79327 37.0832 7.79327 38.5765C7.79555 39.9864 7.41223 41.1235 6.64331 41.9878C5.87439 42.8522 4.84258 43.2855 3.54789 43.2877H2.40249ZM2.40249 36.4682V40.9546H3.3473C3.98781 40.9546 4.46762 40.7655 4.78674 40.3875C5.10585 40.0094 5.26579 39.4426 5.26655 38.6872C5.26655 37.9443 5.10661 37.3889 4.78674 37.021C4.46686 36.6532 3.98705 36.4704 3.3473 36.4726L2.40249 36.4682Z" fill="#1D1D1D"/>
<path id="Vector_18" d="M18.0561 41.8496C18.0561 43.9009 17.6827 45.4391 16.9358 46.4643C16.1889 47.4896 15.0693 48.0015 13.5771 48C12.1281 48 11.042 47.4998 10.3187 46.4994C9.59535 45.4991 9.2333 43.9872 9.23254 41.9637V34.1098H11.643V42.0339C11.643 43.1381 11.8117 43.9667 12.149 44.5195C12.2959 44.7805 12.5159 44.9965 12.7842 45.1429C13.0524 45.2893 13.3579 45.3603 13.666 45.3477C14.33 45.3477 14.8273 45.0811 15.1578 44.548C15.4884 44.0149 15.6532 43.2149 15.6525 42.148V34.1098H18.0561V41.8496Z" fill="#1D1D1D"/>
<path id="Vector_19" d="M27.8622 36.6108H24.8192V47.7642H22.4087V36.6108H19.3806V34.1098H27.8622V36.6108Z" fill="#1D1D1D"/>
<path id="Vector_20" d="M38.5376 47.7642H36.1272V42.2017H31.7086V47.7642H29.3049V34.1098H31.7086V39.5571H36.1272V34.1098H38.5376V47.7642Z" fill="#1D1D1D"/>
<path id="Vector_21" d="M43.3816 47.7642H40.9779V34.1098H43.3816V47.7642Z" fill="#1D1D1D"/>
<path id="Vector_22" d="M48.2096 43.2877V47.7642H45.8071V34.1098H49.5681C50.9114 34.1098 51.9197 34.481 52.5928 35.2232C53.266 35.9654 53.6015 37.0821 53.5992 38.5732C53.5992 39.9831 53.2136 41.1213 52.4424 41.9878C51.6712 42.8544 50.6409 43.2877 49.3515 43.2877H48.2096ZM48.2096 36.4682V40.9546H49.1544C49.7949 40.9546 50.2747 40.7655 50.5938 40.3875C50.9129 40.0094 51.0732 39.4426 51.0748 38.6872C51.0748 37.9443 50.9144 37.3889 50.5938 37.021C50.2732 36.6532 49.7934 36.4704 49.1544 36.4726L48.2096 36.4682Z" fill="#F59115"/>
<path id="Vector_23" d="M53.1202 47.7642L57.0032 34.1098H59.8524L63.6465 47.7675H61.0252L60.3038 44.9155H56.4379L55.7245 47.7675L53.1202 47.7642ZM56.9588 42.5166H59.7533L58.5783 37.7724C58.5338 37.5827 58.4973 37.4203 58.47 37.2876C58.4373 37.1174 58.4137 36.9457 58.3993 36.7731H58.3401C58.315 36.9629 58.2888 37.1285 58.2614 37.2678C58.2341 37.4071 58.1987 37.5629 58.1543 37.7351L56.9588 42.5166Z" fill="#F59115"/>
<path id="Vector_24" d="M71.3325 47.7642H64.9786V34.1098H67.3823V45.2687H71.3325V47.7642Z" fill="#F59115"/>
<path id="Vector_25" d="M79.1284 47.7642H72.7689V34.1098H75.1725V45.2687H79.1284V47.7642Z" fill="#F59115"/>
<path id="Vector_26" d="M79.7472 47.7642L83.6313 34.1098H86.4805L90.2746 47.7642H87.6533L86.9318 44.9122H83.0568L82.3434 47.7642H79.7472ZM83.5857 42.5166H86.3757L85.2006 37.7724C85.1562 37.5827 85.1197 37.4203 85.0924 37.2876C85.065 37.1549 85.0422 36.9826 85.0217 36.7731H84.9624C84.9374 36.9629 84.9111 37.1285 84.8849 37.2678C84.8587 37.4071 84.8211 37.5629 84.771 37.7351L83.5857 42.5166Z" fill="#F59115"/>
<path id="Vector_27" d="M91.6067 47.7642V34.1098H95.4896C96.681 34.1098 97.5962 34.3987 98.2352 34.9764C98.8742 35.5541 99.1941 36.3698 99.1948 37.4236C99.2104 38.0967 99.0329 38.7608 98.6819 39.3432C98.3857 39.8518 97.9263 40.2543 97.3724 40.4906V40.529C97.7058 40.582 98.0238 40.702 98.3058 40.8812C98.5877 41.0604 98.8274 41.2947 99.009 41.5688C99.4155 42.1495 99.6188 42.8559 99.6188 43.6881C99.6188 44.9385 99.2693 45.9305 98.5703 46.664C97.8712 47.3974 96.9162 47.7631 95.7051 47.7609L91.6067 47.7642ZM94.0092 36.3728V39.7041H95.0657C95.5611 39.7041 95.9516 39.5516 96.2373 39.2467C96.523 38.9417 96.6658 38.5227 96.6658 37.9896C96.6658 37.4499 96.5192 37.0452 96.2259 36.7753C95.9341 36.5055 95.4942 36.3706 94.9095 36.3706L94.0092 36.3728ZM94.0092 41.9922V45.4969H95.3119C95.868 45.4969 96.3034 45.332 96.618 45.0022C96.9325 44.6724 97.0898 44.2226 97.0898 43.653C97.0898 43.1411 96.9348 42.7363 96.6248 42.4387C96.3148 42.141 95.8817 41.9948 95.3255 41.9999L94.0092 41.9922Z" fill="#F59115"/>
</g>
</g>
</svg>
